<svg xmlns="http://www.w3.org/2000/svg" width="1002.39" height="625.388" viewBox="0 0 1002.39 625.388">
  <g id="Group_86" data-name="Group 86" transform="translate(-754.444 -66.161)">
    <g id="Group_85" data-name="Group 85" transform="translate(955.324 66.161)">
      <path id="Path_211" data-name="Path 211" d="M1314.419,211.128c-2.318,0-15.673,13.928-23.2,6.445s-19.528-3.184-19.528-3.184l-18.672-3.238-.62,19.425s16.123-7.753,24.355-2.443,27.4,2.539,39.694-8.7C1322.22,214.169,1316.733,211.128,1314.419,211.128Z" transform="translate(-661.654 19.333)" fill="#887055"/>
      <path id="Path_181" data-name="Path 181" d="M1072.14,125.135c-20.373,29.986-12.61,73.936-3.99,122.315l-3.183,145.823c18.206,5.345,41.238,3.919,66.051,0l-2.4-120.651,19.675-68.283-11.958-79.208Z" transform="translate(-775.578 -31.383)" fill="#fff"/>
      <path id="Path_182" data-name="Path 182" d="M1083.326,261.308s-8.025,81.511,30.511,85.059,75.766-16.626,75.766-16.626l-1.412-7.208Z" transform="translate(-761.775 48.927)" opacity="0.59" style="isolation: isolate"/>
      <path id="Path_183" data-name="Path 183" d="M1085.657,144.3l4.172,7.9-14.952,87.479,11.718,22.876,14.562-21.113-7.667-88.98,5.086-7.224-6.963-3.048Z" transform="translate(-766.349 -21.319)" fill="#0e2c32"/>
      <path id="Path_184" data-name="Path 184" d="M1068.931,135.2l5.341-11.4,4.111-14.874h36.987l6.8,26.687-27.053,26.207Z" transform="translate(-769.855 -40.94)" fill="#6b5845"/>
      <path id="Path_185" data-name="Path 185" d="M1114.428,96.734c10.095,22.357-5.818,42.793-19.835,42.752-15.719-.046-31.841-22.215-13.568-46.321A59.016,59.016,0,0,1,1114.428,96.734Z" transform="translate(-767.51 -50.811)" fill="#887055"/>
      <path id="Path_186" data-name="Path 186" d="M1123.218,241.776c.235,142.052-39.273,107.736-114.467,120.034l6.612-28.391Z" transform="translate(-805.347 37.408)" opacity="0.59" style="isolation: isolate"/>
      <path id="Path_187" data-name="Path 187" d="M1430.449,254.656v35.879c-57.078,11.365-130.792,21.284-134.955,14.2,0,0-26.447-25.886-26.917-49.347l-3.248,44.756L1289.5,401.789s-87.573,18.645-102.137,1.7-15.711-110.4-15.711-110.4-5.016,93.277-16.4,109.764-71.978,9.486-100.415-2.552c0,0,21.651-81.378,26.407-97.019s2.434-39.437,2.434-39.437-13.969,33.881-30.867,39.8-124.1-22.845-124.1-22.845l4.34-35.874s87.682,7.807,92.057,4.405,21.385-66.8,35.593-97.518c.382-.464.709-.968,1.291-1.11l91.519-26.391c-14.816.03-19.746,125.767,19.29,149.3,40.666-25.352,42.895-149.6,32.069-150.166l80.578,29.8c14.107,27.247,22.016,65.971,41.3,92.067Z" transform="translate(-852.552 -32.372)" fill="#161616"/>
      <path id="Path_188" data-name="Path 188" d="M1059.086,126.036" transform="translate(-775.661 -30.85)"/>
      <path id="Path_190" data-name="Path 190" d="M1068.552,129.126c-.442-2.976,4.378-8.332,4.378-8.332l22.428,34.027-20.444,7.232Z" transform="translate(-770.096 -33.941)" fill="#fff"/>
      <path id="Path_191" data-name="Path 191" d="M1085.4,154.04l26.578-31.922c3.353,1.2,4.987,4.059,5.8,7.71l-12.634,32.849Z" transform="translate(-760.141 -33.16)" fill="#fff"/>
      <path id="Path_192" data-name="Path 192" d="M1083.382,118.283c-9.09,1.854-13.2,3.86-18.3,10.893-32.816,42.613,12.174,143.37,34.125,147.489C1071.186,222.21,1063.07,167.333,1083.382,118.283Z" transform="translate(-778.965 -35.422)"/>
      <path id="Path_193" data-name="Path 193" d="M886.121,195.87c2.272.444,12.712,16.673,21.53,10.772s19.78.62,19.78.62l18.692.4a57.3,57.3,0,0,1-3.335,18.853s-13.868-10.365-22.966-6.733-27.377-2.761-37.292-16.144C877.879,197.36,883.85,195.427,886.121,195.87Z" transform="translate(-880.803 10.299)" fill="#887055"/>
      <path id="Path_194" data-name="Path 194" d="M1111.464,118.675c6.275,2.229,12.906,5.257,18.234,10.27,24.574,41.424-34.847,150.478-47.451,147.489,24.525-40.95,37.343-101.811,30.776-151.64C1112.752,122.74,1111.422,120.758,1111.464,118.675Z" transform="translate(-762.002 -35.191)"/>
      <path id="Path_195" data-name="Path 195" d="M1011.938,143.367c10.055,22.07,20.829,54.958,25.075,78.988-.377-25.907-7.248-61.437-19.677-81.273a1.854,1.854,0,0,0-2.011-.819l-2.127.514a1.869,1.869,0,0,0-1.38,1.4h0A1.88,1.88,0,0,0,1011.938,143.367Z" transform="translate(-803.565 -22.49)"/>
      <path id="Path_197" data-name="Path 197" d="M1031.167,274.616l4.63-13.309,39.982,4.631-4.1,12.731C1054.794,281.735,1040.191,281.832,1031.167,274.616Z" transform="translate(-792.127 48.926)"/>
      <path id="Path_198" data-name="Path 198" d="M1104.09,269.022l3.47,12.346c13.335,2.418,27.568-.518,42.442-7.308l-3.857-12.753Z" transform="translate(-749.12 48.926)"/>
      <path id="Path_203" data-name="Path 203" d="M1246.719,206.188l-6.469-.548,6.469,36.426Z" transform="translate(-668.82 16.097)"/>
      <path id="Path_204" data-name="Path 204" d="M1159.362,142.2c-12,29.1-16.157,64.281-16.867,102.135,6.276-36.338,13.594-67.507,22.792-89.328Z" transform="translate(-726.471 -21.319)"/>
      <path id="Path_205" data-name="Path 205" d="M1072.881,118.283l20.842,38.02L1071.3,122.276Z" transform="translate(-768.461 -35.422)" fill="#564739"/>
      <path id="Path_206" data-name="Path 206" d="M1111.231,125.056l-1.626-6.38-24.2,37.388Z" transform="translate(-760.141 -35.19)" fill="#564739"/>
      <path id="Path_207" data-name="Path 207" d="M1128.026,145.489a40.749,40.749,0,0,0-.727-7.981l-8.362,21.738-19.741-8.639,24.132,13.087a571.562,571.562,0,0,1-29.148,107.276c-19.322-49.7-28.458-98-21.21-143.042l1.486,33.962,24.738-11.282-20.448,7.232-5.777-29.911h0l-10.961,11.038,4.047,77.9,28.126,59.894,39.736-65.97Z" transform="translate(-773.938 -29.733)" opacity="0.09" style="isolation: isolate"/>
      <path id="Path_208" data-name="Path 208" d="M1118.395,123.023c-1.871-5.83-.542-8.814-6.614-21.147-6.443.6-16.786,2.45-29.275-2.289,2.418,7.354-2.8,10.24-8.609,19.754-4.074-16.161-3.858-12.586-2.3-27.717l6.795-8.718,45.882,6.3S1122.749,123.031,1118.395,123.023Z" transform="translate(-768.894 -56.286)" fill="#070808"/>
      <path id="Path_209" data-name="Path 209" d="M934.409,240.043,919.038,233.2c2.871-11.24,3.779-15.268,3.709-26.256l17.406-14.368Z" transform="translate(-858.255 8.39)" fill="#fff"/>
      <g id="Group_37" data-name="Group 37" transform="translate(379.791 146.452)">
        <g id="Group_36-2" data-name="Group 36-2">
          <g id="Group_26-2" data-name="Group 26-2">
            <g id="Group_25-2" data-name="Group 25-2">
              <path id="Path_38-2" data-name="Path 38-2" d="M1130.481,162.942a2.81,2.81,0,0,1-.606.194c-.2.045-.413.111-.61.154a4.6,4.6,0,0,0-.544.153,4.057,4.057,0,0,1-.544.153c-.045.544-.108,1.087-.151,1.631-.067.542-.13,1.087-.2,1.631-.067.456-.132.892-.2,1.331s-.129.892-.2,1.329-.151.893-.218,1.331-.153.893-.261,1.331a.209.209,0,0,1-.089.108.274.274,0,0,1-.122.022.221.221,0,0,1-.11-.087.338.338,0,0,1-.021-.153c.084-.5.172-1,.256-1.478s.178-1,.262-1.48c.13-.868.262-1.761.374-2.631s.216-1.763.3-2.661v-.065c-.564.175-1.13.369-1.674.588s-1.087.434-1.633.674l-2,3.523a.119.119,0,0,1-.107.064.174.174,0,0,1-.109-.019c-.045-.022-.064-.045-.064-.087a.147.147,0,0,1,.021-.13l1.329-2.35a2.153,2.153,0,0,1,.218-.369c.067-.132.153-.262.219-.37l-.151.065q-1.047.484-2.024,1.044c-.654.369-1.307.76-1.935,1.175a.159.159,0,0,1-.108.021c-.022-.021-.067-.021-.067-.064a.166.166,0,0,1-.021-.11c0-.043.021-.064.065-.087.369-.242.717-.483,1.088-.719s.739-.434,1.111-.653.76-.413,1.132-.6.762-.393,1.173-.568l1.655-2.935c.2-.348.37-.676.568-1s.362-.652.564-1c.173-.281.348-.564.544-.825a3.487,3.487,0,0,1,.7-.7.157.157,0,0,1,.194,0,.176.176,0,0,1,.089.173c-.024.523-.044,1.024-.068,1.523s-.064,1-.108,1.523c-.022.283-.041.587-.062.871s-.043.564-.07.871c.176-.045.372-.11.547-.153.2-.046.37-.11.542-.154s.372-.086.545-.129a2.319,2.319,0,0,1,.564-.064.076.076,0,0,1,.065.021c.022.021.022.043.044.064v.065a.063.063,0,0,0-.089-.008Zm-4.417,1.065c.281-.108.587-.216.87-.326s.587-.2.893-.305c.127-1.478.242-2.981.3-4.481a3.379,3.379,0,0,0-.542.7c-.151.261-.3.5-.456.761-.415.695-.806,1.413-1.2,2.087-.393.7-.781,1.394-1.2,2.091.218-.087.436-.2.652-.283.216-.065.435-.153.674-.24Z" transform="translate(-1119.704 -158.284)" fill="#e0a65a"/>
              <path id="Path_39-2" data-name="Path 39-2" d="M1126.97,167.585a.168.168,0,0,1,.088.084.282.282,0,0,1,.021.132.143.143,0,0,1-.129.151h-.022a.234.234,0,0,1-.173-.065.305.305,0,0,1-.086-.153.555.555,0,0,1-.045-.2.693.693,0,0,0-.022-.2c-.022-.281-.022-.542-.022-.825.022-.436.064-.871.106-1.285.067-.434.131-.846.218-1.283l-.151.242a.123.123,0,0,1-.067.11l-.065.087a2.79,2.79,0,0,0-.242.348,3.242,3.242,0,0,1-.264.327,2.747,2.747,0,0,1-.281.261.329.329,0,0,1-.363.045.279.279,0,0,1-.2-.153.407.407,0,0,1-.065-.218,1.054,1.054,0,0,1,.043-.261c.046-.086.067-.173.11-.259a1.3,1.3,0,0,1,.151-.242c.041-.065.108-.13.131-.175a.835.835,0,0,1,.588-.242.5.5,0,0,1,.3.086c.046-.064.089-.129.132-.194a2.031,2.031,0,0,0,.129-.218,3.238,3.238,0,0,0,.173-.305c.045-.108.11-.2.154-.3l.194-.893c.025-.108.067-.242.089-.347s.065-.242.084-.35a.754.754,0,0,1,.11-.218.517.517,0,0,1,.2-.173.093.093,0,0,1,.106,0,.156.156,0,0,1,.046.11,5.246,5.246,0,0,1-.22.827c-.084.281-.175.544-.281.827-.067.391-.132.806-.2,1.2s-.13.8-.175,1.2c-.021.216-.067.456-.088.674s-.043.456-.043.672v.653l.021.35Zm-.912-2.96c.108-.151.242-.305.347-.485a.428.428,0,0,0-.326,0,.587.587,0,0,0-.259.2,1.23,1.23,0,0,0-.176.283.176.176,0,0,0-.045.087.377.377,0,0,0-.045.151.31.31,0,0,0-.021.13c0,.022.021.067.043.067h.022a.151.151,0,0,0,.13-.067c.044-.045.065-.086.11-.108Z" transform="translate(-1116.457 -156.748)" fill="#e0a65a"/>
              <path id="Path_40-2" data-name="Path 40-2" d="M1129.993,163.465a.082.082,0,0,1,.116,0l.016.022h0a.1.1,0,0,1,.024.13,1.414,1.414,0,0,1-.37.436c-.153.13-.306.242-.456.348a1.822,1.822,0,0,1-.305.153.619.619,0,0,1-.35.065.417.417,0,0,1-.261-.086.531.531,0,0,1-.173-.2.879.879,0,0,1-.043-.242c0-.086.021-.153.021-.242.022-.087.045-.153.067-.218a.529.529,0,0,0,.043-.173,1.455,1.455,0,0,0,.065-.175l-.523.521a1.973,1.973,0,0,0-.2.219,2,2,0,0,1-.216.216,1.641,1.641,0,0,1-.259.153.331.331,0,0,1-.285,0,.279.279,0,0,1-.218-.283.661.661,0,0,1,.107-.348,3.193,3.193,0,0,1,.173-.283c.109-.151.243-.3.372-.456a1.04,1.04,0,0,1,.483-.326,1.454,1.454,0,0,1,.281-.067.638.638,0,0,1,.2.045.451.451,0,0,1,.172.108l.264-.259a.163.163,0,0,1,.087-.045c.021,0,.065.022.084.022.021.022.046.045.046.065a.122.122,0,0,1-.026.089,2.886,2.886,0,0,0-.216.434,4.209,4.209,0,0,0-.151.456.886.886,0,0,0-.067.218,1.208,1.208,0,0,0-.043.281.282.282,0,0,0,.021.13c.022.045.045.087.089.087a.21.21,0,0,0,.172.022.717.717,0,0,0,.2-.086c.067-.045.132-.065.2-.108s.109-.087.151-.11c.11-.086.22-.173.35-.281A3.263,3.263,0,0,0,1129.993,163.465Zm-2.151-.022c.086-.087.151-.153.243-.243l.242-.242a1.117,1.117,0,0,0-.242-.021.451.451,0,0,0-.243.11,1.455,1.455,0,0,0-.219.173c-.065.067-.13.13-.2.2a1.289,1.289,0,0,0-.151.218c-.045.065-.084.153-.131.218,0,.022-.022.022-.022.043-.024.022-.024.041-.045.064s-.021.043-.044.065v.043c0,.022.024.022.065,0s.067-.043.111-.065.063-.065.107-.086l.067-.065Z" transform="translate(-1115.585 -155.808)" fill="#e0a65a"/>
              <path id="Path_41-2" data-name="Path 41-2" d="M1132.672,163.5a.1.1,0,0,1,.129.024.1.1,0,0,1,.046.129.85.85,0,0,1-.175.285,1.707,1.707,0,0,1-.283.242,1,1,0,0,1-.328.127.476.476,0,0,1-.3-.041.8.8,0,0,1-.281-.262,1.043,1.043,0,0,1-.132-.369,1.515,1.515,0,0,0-.172.242c-.068.087-.11.151-.173.242a1.04,1.04,0,0,1-.135.154c-.041.041-.1.086-.151.13-.064.021-.11.043-.175.065a.342.342,0,0,1-.194-.065.31.31,0,0,1-.13-.154c-.022-.064-.045-.13-.067-.2a.723.723,0,0,1-.021-.219v-.194c0-.13.021-.242.021-.37a1.787,1.787,0,0,0,0-.347,2.737,2.737,0,0,0-.371.347c-.106.13-.216.262-.326.415s-.2.283-.305.434a2.83,2.83,0,0,1-.3.413.107.107,0,0,1-.067.043.129.129,0,0,1-.088-.021c-.021-.022-.044-.022-.062-.043a.119.119,0,0,1-.026-.087l.067-.5.021-.261v-.129a.107.107,0,0,1,.065-.132.09.09,0,0,1,.124.025l.008.018v.022a.36.36,0,0,1,.041.218.65.65,0,0,1-.021.216v.087c.086-.13.2-.262.283-.393a4.252,4.252,0,0,1,.281-.39,2.441,2.441,0,0,1,.3-.35,2.6,2.6,0,0,1,.37-.3.139.139,0,0,1,.132,0,.213.213,0,0,1,.086.108,1.2,1.2,0,0,1,.041.483v.11a.294.294,0,0,1-.019.129c0,.065-.022.13-.022.2v.372c0,.064.022.108.022.172.019.067.044.089.067.067.043-.024.064-.045.107-.067a.857.857,0,0,0,.132-.151.919.919,0,0,1,.108-.153l.458-.631c.021-.022.041-.065.084-.065a.1.1,0,0,1,.108,0c.045,0,.065.022.086.065a.161.161,0,0,1,.043.108,2.6,2.6,0,0,0,.048.413.485.485,0,0,0,.216.327.16.16,0,0,0,.2,0,1.272,1.272,0,0,0,.2-.132c.067-.065.129-.108.2-.173A.885.885,0,0,1,1132.672,163.5Z" transform="translate(-1114.456 -155.777)" fill="#e0a65a"/>
              <path id="Path_42-2" data-name="Path 42-2" d="M1133.147,163.533a.108.108,0,0,1,.132.043.081.081,0,0,1,.014.116l-.014.014a1.121,1.121,0,0,1-.326.327,2.207,2.207,0,0,0-.37.285c-.13.086-.242.173-.35.261.024.065.065.13.087.2a.606.606,0,0,1-.022.393,1.06,1.06,0,0,1-.216.324,1.153,1.153,0,0,1-.307.262,1.052,1.052,0,0,1-.348.2,1.34,1.34,0,0,1-.173.065.5.5,0,0,1-.173.022.382.382,0,0,1-.305-.153.35.35,0,0,1-.067-.2.661.661,0,0,1,.046-.2.466.466,0,0,1,.108-.173c.041-.065.086-.11.13-.173a1.978,1.978,0,0,1,.283-.305l.324-.261.13-.11a4.493,4.493,0,0,1-.3-.391.875.875,0,0,1-.127-.483.9.9,0,0,1,.086-.326,1.084,1.084,0,0,1,.175-.283,1.287,1.287,0,0,1,.259-.242,1.315,1.315,0,0,1,.28-.175.111.111,0,0,1,.113,0l.065.067a.139.139,0,0,1,.021.087.07.07,0,0,1-.065.064,1,1,0,0,0-.348.261.935.935,0,0,0-.218.369.427.427,0,0,0,.022.37,1.587,1.587,0,0,0,.218.3l.108.108.348-.259a4.014,4.014,0,0,0,.37-.283A2.963,2.963,0,0,0,1133.147,163.533Zm-1.369,1.719a.815.815,0,0,0,.151-.218.416.416,0,0,0,0-.242l-.108.065c-.086.087-.2.153-.281.242s-.175.153-.261.242c-.07.1-.135.2-.2.305h0c.043,0,.065-.022.107-.022a1.312,1.312,0,0,0,.305-.154,1.071,1.071,0,0,0,.283-.216Z" transform="translate(-1113.214 -155.766)" fill="#e0a65a"/>
              <path id="Path_43-2" data-name="Path 43-2" d="M1132.539,161.672c-.091.043-.132,0-.045-.065a.985.985,0,0,0,.151-.153c-.043,0-.067-.045-.043-.11.043-.151.261-.175.242-.065A.788.788,0,0,1,1132.539,161.672Z" transform="translate(-1112.189 -156.558)" fill="#e0a65a"/>
              <path id="Path_44-2" data-name="Path 44-2" d="M1135.614,163.56a.106.106,0,0,1,.132.043.08.08,0,0,1,.017.113l-.017.018a1.2,1.2,0,0,1-.324.327,2.467,2.467,0,0,0-.372.281c-.13.087-.242.175-.348.262.022.064.065.13.089.2a.824.824,0,0,1-.024.393,1.042,1.042,0,0,1-.218.326,1.194,1.194,0,0,1-.3.262,1.124,1.124,0,0,1-.348.2c-.045.024-.11.043-.154.065a.455.455,0,0,1-.173.021.379.379,0,0,1-.3-.151.348.348,0,0,1-.067-.2.63.63,0,0,1,.044-.2.512.512,0,0,1,.108-.175c.044-.064.086-.108.127-.172a1.859,1.859,0,0,1,.285-.305l.326-.261.13-.11c-.108-.13-.218-.261-.305-.391a.817.817,0,0,1-.043-.809,1.13,1.13,0,0,1,.176-.283,2.857,2.857,0,0,1,.258-.242,1.16,1.16,0,0,1,.285-.175.1.1,0,0,1,.106,0l.067.065a.131.131,0,0,1,.022.087.072.072,0,0,1-.065.067,1.024,1.024,0,0,0-.35.261.941.941,0,0,0-.218.37.439.439,0,0,0,.022.37,1.51,1.51,0,0,0,.216.3l.11.11.348-.262a4.294,4.294,0,0,0,.369-.283A2,2,0,0,0,1135.614,163.56Zm-1.347,1.719a.791.791,0,0,0,.153-.218.446.446,0,0,0,0-.242l-.11.065a3.111,3.111,0,0,0-.283.242c-.087.089-.173.151-.259.242-.065.087-.13.2-.2.3h0c.046,0,.067-.022.11-.022a1.256,1.256,0,0,0,.3-.151,1.41,1.41,0,0,0,.285-.218Z" transform="translate(-1111.744 -155.75)" fill="#e0a65a"/>
            </g>
          </g>
          <g id="Group_31-2" data-name="Group 31-2" transform="translate(9.143 12.619)">
            <g id="Group_30-2" data-name="Group 30-2">
              <path id="Path_67-2" data-name="Path 67-2" d="M1125.482,166.222l2.151.045-.022.194h-.544l.328,5.941,1.892-5.156a1.418,1.418,0,0,0,.086-.413c0-.218-.129-.3-.37-.327h-.3l.046-.194,1.718.021-.026.2h-.175c-.324,0-.563.219-.739.674l-2.763,7.637h-.262l-.521-8.378h-.522Z" transform="translate(-1125.455 -166.222)" fill="#e0a65a"/>
            </g>
          </g>
          <g id="Group_33-2" data-name="Group 33-2" transform="translate(16.426 12.767)">
            <g id="Group_32-2" data-name="Group 32-2">
              <path id="Path_68-2" data-name="Path 68-2" d="M1130.036,174.734l.022-.2h.566l1.261-8.027h-.566l.024-.2,3.916.067-.285,1.849h-.194a2.628,2.628,0,0,0-.218-1.262.89.89,0,0,0-.762-.413l-.806-.022-.566,3.634h.566a1.161,1.161,0,0,0,.653-.218,1.281,1.281,0,0,0,.391-.957h.2l-.413,2.7h-.2a2.554,2.554,0,0,0,.045-.412,1,1,0,0,0-.175-.653.618.618,0,0,0-.5-.242h-.587l-.674,4.178.653.022a1.189,1.189,0,0,0,1.022-.485,4.786,4.786,0,0,0,.717-1.5h.2l-.351,2.2Z" transform="translate(-1130.036 -166.315)" fill="#e0a65a"/>
            </g>
          </g>
          <g id="Group_35-2" data-name="Group 35-2" transform="translate(0.373 12.511)">
            <g id="Group_34-2" data-name="Group 34-2">
              <path id="Path_69-2" data-name="Path 69-2" d="M1125.161,166.208l-.021.2h-.566l-1.264,8.027h.568l-.022.2-3.917-.065.283-1.849h.2a2.59,2.59,0,0,0,.219,1.262.878.878,0,0,0,.757.412l.808.024.564-3.628h-.564a1.181,1.181,0,0,0-.655.216,1.27,1.27,0,0,0-.391.957h-.2l.412-2.7h.2a2.592,2.592,0,0,0-.044.413.987.987,0,0,0,.175.653.62.62,0,0,0,.5.242h.585l.676-4.178-.65-.021a1.186,1.186,0,0,0-1.024.483,4.8,4.8,0,0,0-.719,1.5h-.2l.35-2.2Z" transform="translate(-1119.938 -166.154)" fill="#e0a65a"/>
            </g>
          </g>
        </g>
      </g>
      <path id="Path_212" data-name="Path 212" d="M1121.086,99.086s-40.133-38.979-44.284-32.115,8.389,36.154,8.389,36.154Z" transform="translate(-765.71 -66.161)" fill="#070808"/>
      <path id="Path_213" data-name="Path 213" d="M1087.474,99.754s-4.717-28.331-12.082-27.879-.121,29.255-.121,29.255Z" transform="translate(-767.995 -62.794)" fill="#070808"/>
      <path id="Path_214" data-name="Path 214" d="M1186.18,200.108c-2.571,12.022-9.883,21.594-19.122,30.169a71.711,71.711,0,0,0,24.9-29.679Z" transform="translate(-711.985 12.834)"/>
      <path id="Path_214-2" data-name="Path 214" d="M992.338,200.7c2.571,12.022,11.626,25.506,20.864,34.081-10.864-7.423-20.392-18.123-25.81-30.113Z" transform="translate(-817.943 13.181)"/>
      <path id="Path_215" data-name="Path 215" d="M1173.808,191.758l8.074,10.535.318,2.744A22.844,22.844,0,0,1,1173.808,191.758Z" transform="translate(-708.004 7.91)" fill="#161616"/>
      <path id="Path_202" data-name="Path 202" d="M1244.319,209.382V200.22l14.934,10.8c-1.963,4.232-1.828,17.508-2.122,31.828l-12.812,2.41Z" transform="translate(-666.421 12.9)" fill="#fff"/>
    </g>
    <g id="Group_69" data-name="Group 69" transform="translate(754.444 228.157)">
      <path id="Path_218" data-name="Path 218" d="M970.467,459.379s69.427-10.128,84.37-6.129-68.264-14.516-68.264-14.516Z" transform="translate(-627.044 -8.433)" fill="#0d2022"/>
      <path id="Path_219" data-name="Path 219" d="M913,442.229s6.65,24.535,50.058,21.643,70.117-16.656,70.117-16.656Z" transform="translate(-660.937 -6.372)" fill="#0d2022"/>
      <path id="Path_220" data-name="Path 220" d="M998.514,249.614l-1.85,1.216-10.605-14.748,1.229-1.334Z" transform="translate(-617.85 -128.733)" fill="#0e0d0d"/>
      <g id="Group_62" data-name="Group 62" transform="translate(0 273.848)">
        <path id="Path_221" data-name="Path 221" d="M811.572,415.871l82-69.962a1.749,1.749,0,0,0,.193-2.469l-.018-.021-2.084-2.488a1.75,1.75,0,0,0-2.467-.192l-.022.019-82,69.962a12.281,12.281,0,0,1-17.3-1.389h0a6.607,6.607,0,0,0-9.311-.757l0,0-23.782,20.314a6.6,6.6,0,0,0-.757,9.308l0,0,20.314,23.783a6.6,6.6,0,0,0,9.313.757l0,0,23.784-20.314a6.607,6.607,0,0,0,.754-9.313l0,0h0a12.215,12.215,0,0,1,1.366-17.219Z" transform="translate(-754.444 -340.32)" fill="#dfdfdf"/>
        <g id="Group_61" data-name="Group 61" transform="translate(10.198 76.499)">
          <rect id="Rectangle_45" data-name="Rectangle 45" width="24.824" height="4.687" transform="translate(0 16.106) rotate(-40.453)" fill="#383838"/>
          <rect id="Rectangle_46" data-name="Rectangle 46" width="24.824" height="4.687" transform="translate(7.55 24.933) rotate(-40.453)" fill="#383838"/>
          <rect id="Rectangle_47" data-name="Rectangle 47" width="24.824" height="4.687" transform="translate(15.094 33.842) rotate(-40.453)" fill="#383838"/>
        </g>
      </g>
      <path id="Path_222" data-name="Path 222" d="M988.72,229.141l-.835,11.915,24.651,27.085,14.411-13.421-10.414-11.459,1.108-13.47Z" transform="translate(-616.772 -132.04)" fill="#daaf81"/>
      <path id="Path_223" data-name="Path 223" d="M1218.37,375.307l-48.319,27.66-37.556-56.94L1000.327,330,859.3,416.973l-14.872-28.935S964.42,256.483,970.439,253.7c6.076-2.782,68.367-3.331,79.131-5.067s21.241-13.888,21.241-13.888l12.09,15.972,21.932-14.468s50.172,23.349,70.426,32.084C1181.1,270.878,1195.05,323.683,1218.37,375.307Z" transform="translate(-701.374 -128.733)" fill="#fff"/>
      <path id="Path_224" data-name="Path 224" d="M1090.112,429.2l-35.24-8.275v-.173l-.405-2.836-5.21-67.126,48.32-27.662c-1.505,23.264-5.44,78.7-6.367,91.663l-.23,2.951c-.23,3.011-.4,5.5-.579,7.349C1090.169,427.749,1090.112,429.2,1090.112,429.2Z" transform="translate(-580.578 -76.614)" fill="#fff"/>
      <path id="Path_225" data-name="Path 225" d="M1092.9,411.463c1.451-11.863,2.9-23.841,2.9-35.82,0-5.728-.289-11.459-.634-17.128-.466-8.333-.871-15.336-1.33-23.611l-.984-26.5s-135-33.795-136.218-28.294c-7.7,34.9-28.415,92.473-28.183,128.232L991.3,467.6Z" transform="translate(-651.825 -102.34)" fill="#fff"/>
      <path id="Path_226" data-name="Path 226" d="M1024.526,212.034c17.349,53.788-65.763,47.805-29.686-4.4C1004.387,205.842,1014.339,207.52,1024.526,212.034Z" transform="translate(-618.083 -145.139)" fill="#f3c68f"/>
      <path id="Path_227" data-name="Path 227" d="M1085.976,402.577s7.289,19.964.75,26.1-19.094,11.227-23.088,9.782S1044.31,426.94,1044.6,418.9s15.335-24.536,15.335-24.536Z" transform="translate(-583.327 -34.602)" fill="#f3c68f"/>
      <path id="Path_228" data-name="Path 228" d="M849.643,337.777c-10.648-1.909-21.524,2.547-30.439,8.682a9.358,9.358,0,0,0-1.968,1.738,6.9,6.9,0,0,0-1.04,3.7,36.131,36.131,0,0,0,1.854,14.7,17.088,17.088,0,0,0,5.383,8.276,19.743,19.743,0,0,0,5.207,2.545c5.555,1.967,11.921,3.3,17.129.579,3.878-2.025,6.307-5.9,8.621-9.551a38.819,38.819,0,0,0,4.629-9.144" transform="translate(-718.096 -68.236)" fill="#f3c68f"/>
      <path id="Path_229" data-name="Path 229" d="M967.4,280.5c-13.058,17.4-22.6,35.671-30.534,54.349,0,0,2.817-9.734,8.893-31.9Z" transform="translate(-646.862 -101.752)" fill="#d7d7d7" opacity="0.57"/>
      <path id="Path_230" data-name="Path 230" d="M1037.786,329.584l-13.828-37.725,38.709,75.17Z" transform="translate(-595.498 -95.052)" fill="#d7d7d7" opacity="0.57"/>
      <path id="Path_231" data-name="Path 231" d="M849.573,322.943l-12.384,23.32L849.4,377.917l19.273-13.422Z" transform="translate(-705.645 -76.72)" fill="#fff"/>
      <path id="Path_232" data-name="Path 232" d="M847.322,330.369l14.389,31.293,2.374-1.451L853.144,324Z" transform="translate(-699.669 -76.096)" fill="#d7d7d7" opacity="0.57"/>
      <path id="Path_233" data-name="Path 233" d="M1052.533,383.884l.4,2.836,35.529,4.34.754-10.241Z" transform="translate(-578.646 -42.588)" fill="#d7d7d7" opacity="0.57"/>
      <circle id="Ellipse_12" data-name="Ellipse 12" cx="3.357" cy="3.357" r="3.357" transform="translate(352.944 151.724)" fill="#212120"/>
      <circle id="Ellipse_13" data-name="Ellipse 13" cx="3.357" cy="3.357" r="3.357" transform="translate(396.634 158.437)" fill="#212120"/>
      <circle id="Ellipse_14" data-name="Ellipse 14" cx="3.357" cy="3.357" r="3.357" transform="translate(341.544 201.837)" fill="#212120"/>
      <circle id="Ellipse_15" data-name="Ellipse 15" cx="3.357" cy="3.357" r="3.357" transform="translate(385.176 208.608)" fill="#212120"/>
      <circle id="Ellipse_16" data-name="Ellipse 16" cx="3.357" cy="3.357" r="3.357" transform="translate(331.128 247.61)" fill="#212120"/>
      <circle id="Ellipse_17" data-name="Ellipse 17" cx="3.357" cy="3.357" r="3.357" transform="translate(374.817 254.322)" fill="#212120"/>
      <g id="Group_63" data-name="Group 63" transform="translate(301.614 119.029)">
        <path id="Path_234" data-name="Path 234" d="M946.425,434.593l-2.257-.58,40.505-160.118a12.741,12.741,0,0,1,5.442-7.581l31.768-23.379,1.331,1.854-31.827,23.492a10.523,10.523,0,0,0-4.454,6.192Z" transform="translate(-944.168 -242.934)" fill="#d7d7d7"/>
      </g>
      <path id="Path_235" data-name="Path 235" d="M1023.96,291.857V402.443l13.77,2.024c1.445-21.295,2.372-59.312-.175-76.847Z" transform="translate(-595.497 -95.053)" fill="#d7d7d7" opacity="0.57"/>
      <path id="Path_236" data-name="Path 236" d="M938.134,315.3c4.914,12.743,16.473,20.807,35.106,26.285-14.4-1.477-28.07-3.725-38.965-8.947C934.963,326.363,936.6,321.012,938.134,315.3Z" transform="translate(-648.388 -81.226)" fill="#d7d7d7" opacity="0.57"/>
      <path id="Path_237" data-name="Path 237" d="M1124.22,437.217a297.491,297.491,0,0,0-1.1-30.439c-1.793-17.532-6.6-34.836-5.614-52.427.288-4.745.867-9.78-1.451-13.886-2.72-4.8-8.621-6.714-14-7.7-33.68-6.308-68.111,6.6-102.313,4.745-15.621-.868-30.9-4.8-46.117-8.739-4.342-1.1-8.623-2.257-12.961-3.356a12.882,12.882,0,0,0-5.729-.579c-3.3.693-5.5,3.935-6.078,7.232s.175,6.652.927,9.9c2.539,11.341,4.8,22.853,4.688,34.488-.232,29.746-15.451,57.231-20.08,86.576-2.547,16.028-1.852,32.283-1.159,48.492,42.879,3.531,85.993,5.151,129.046,4.976,14.583-.057,29.339-.347,43.515,3.124,10.071,2.49,19.908,7,27.487,14.12,3.242,3.011,6.02,8.449,9.43,2.951,2.259-3.7.695-15.161.811-19.5C1124.393,490.57,1124.332,463.894,1124.22,437.217Z" transform="translate(-661.178 -75.661)" fill="#0e2c32"/>
      <path id="Path_238" data-name="Path 238" d="M987.924,236.426l9.43,12.565,2.315-1.5c-1.04.121-11.747-11.688-11.747-11.688Z" transform="translate(-616.751 -128.113)" fill="#bd9675"/>
      <path id="Path_239" data-name="Path 239" d="M986.832,235.17l1.967-1.157-.232,3.467Z" transform="translate(-617.393 -129.167)"/>
      <path id="Path_240" data-name="Path 240" d="M1009.524,235.11l-3.184-.984-.289,3.242Z" transform="translate(-606.06 -129.1)"/>
      <path id="Path_241" data-name="Path 241" d="M1051.951,384.421l50.284,6.19-20.6,17.824-26.1-8.275Z" transform="translate(-578.99 -40.464)" fill="#fff"/>
      <path id="Path_242" data-name="Path 242" d="M993.892,249.615l1.208,1.967,22.627-14.751-1.04-2.084Z" transform="translate(-613.23 -128.734)" fill="#fff"/>
      <g id="Group_64" data-name="Group 64" transform="translate(366.52 353.801)">
        <path id="Path_243" data-name="Path 243" d="M1050.85,390.613a97.915,97.915,0,0,1-14.815,9.553,118.072,118.072,0,0,1-16.144,7.176A87.373,87.373,0,0,1,1002.7,411.8a57.865,57.865,0,0,1-8.912.636,28.255,28.255,0,0,1-4.456-.348c-.755-.121-1.451-.232-2.2-.346-.752-.175-1.45-.348-2.14-.52a70.816,70.816,0,0,0,8.623-1.041q4.252-.782,8.33-1.911c5.5-1.5,10.939-3.3,16.376-5.265,5.384-1.968,10.761-4.051,16.145-6.135C1039.912,394.775,1045.294,392.638,1050.85,390.613Z" transform="translate(-984.996 -390.613)" fill="#0d2022"/>
      </g>
      <g id="Group_37-2" data-name="Group 37-2" transform="translate(328.497 323.629)">
        <g id="Group_36-3" data-name="Group 36-3">
          <g id="Group_26-3" data-name="Group 26-3">
            <g id="Group_25-3" data-name="Group 25-3">
              <path id="Path_38-3" data-name="Path 38-3" d="M989.785,384.042a7.638,7.638,0,0,1-1.62.52c-.521.121-1.1.291-1.622.405a13.333,13.333,0,0,0-1.445.405,10.676,10.676,0,0,1-1.452.4c-.121,1.451-.291,2.895-.405,4.34q-.26,2.17-.523,4.342c-.172,1.215-.346,2.374-.52,3.529s-.348,2.372-.521,3.529-.405,2.372-.579,3.529-.406,2.374-.695,3.531a.576.576,0,0,1-.23.289.747.747,0,0,1-.348.059.605.605,0,0,1-.291-.232.877.877,0,0,1-.056-.405c.234-1.331.461-2.66.695-3.933s.461-2.66.695-3.936c.348-2.315.695-4.687.984-7s.579-4.688.809-7.062v-.172c-1.5.463-3.008.982-4.455,1.56s-2.9,1.159-4.34,1.795l-5.319,9.375a.319.319,0,0,1-.289.173.422.422,0,0,1-.289-.059c-.121-.057-.175-.121-.175-.231a.38.38,0,0,1,.059-.348l3.529-6.249a5.5,5.5,0,0,1,.58-.982c.172-.348.4-.695.579-.986l-.407.173q-2.776,1.3-5.381,2.782c-1.736.984-3.47,2.025-5.149,3.125a.438.438,0,0,1-.289.059c-.056-.059-.173-.059-.173-.175a.435.435,0,0,1-.057-.291c0-.115.057-.172.173-.231.983-.636,1.911-1.273,2.892-1.911s1.968-1.156,2.952-1.736,2.026-1.1,3.011-1.618,2.022-1.043,3.122-1.5l4.4-7.812c.52-.927.982-1.795,1.505-2.661s.982-1.736,1.5-2.66c.466-.754.93-1.505,1.452-2.2a9.381,9.381,0,0,1,1.854-1.852.436.436,0,0,1,.52,0,.471.471,0,0,1,.234.464c-.06,1.389-.122,2.72-.176,4.051s-.173,2.66-.288,4.051c-.059.754-.121,1.563-.173,2.315s-.121,1.5-.175,2.315c.463-.121.984-.289,1.45-.405.525-.121.985-.289,1.451-.405s.984-.23,1.452-.347a6.307,6.307,0,0,1,1.5-.173.211.211,0,0,1,.173.059c.059.059.059.121.121.173v.173A.187.187,0,0,0,989.785,384.042Zm-11.748,2.836c.753-.289,1.564-.58,2.316-.868s1.564-.521,2.372-.811c.348-3.935.636-7.928.809-11.92a8.954,8.954,0,0,0-1.451,1.852c-.4.693-.808,1.331-1.208,2.025-1.1,1.852-2.141,3.76-3.183,5.556-1.041,1.85-2.084,3.7-3.183,5.555.579-.23,1.156-.523,1.738-.752C976.821,387.339,977.4,387.11,978.037,386.878Z" transform="translate(-961.079 -371.634)" fill="#e0a65a"/>
              <path id="Path_39-3" data-name="Path 39-3" d="M980.443,396.382a.444.444,0,0,1,.229.231.739.739,0,0,1,.057.347.386.386,0,0,1-.348.405h-.056a.66.66,0,0,1-.464-.173.932.932,0,0,1-.231-.405,1.735,1.735,0,0,1-.121-.52,1.589,1.589,0,0,0-.057-.52c-.057-.754-.057-1.451-.057-2.2.057-1.157.175-2.315.289-3.415.173-1.156.348-2.256.579-3.413l-.4.636a.313.313,0,0,1-.175.289l-.173.232a8.5,8.5,0,0,0-.634.925,9.166,9.166,0,0,1-.7.868,8.423,8.423,0,0,1-.754.695.873.873,0,0,1-.983.121.737.737,0,0,1-.521-.405,1.121,1.121,0,0,1-.175-.577,2.783,2.783,0,0,1,.122-.695c.121-.232.173-.463.291-.693a3.847,3.847,0,0,1,.4-.637c.121-.173.291-.348.35-.464a2.244,2.244,0,0,1,1.564-.636,1.315,1.315,0,0,1,.806.232l.35-.521a5.039,5.039,0,0,0,.345-.579c.175-.232.291-.52.466-.809.121-.291.286-.523.4-.811l.52-2.374c.059-.288.176-.637.234-.925s.175-.636.231-.927a1.813,1.813,0,0,1,.289-.579,1.335,1.335,0,0,1,.523-.463.256.256,0,0,1,.288,0,.452.452,0,0,1,.121.289,13.649,13.649,0,0,1-.58,2.2c-.232.754-.463,1.451-.754,2.2-.173,1.041-.348,2.141-.52,3.183s-.348,2.141-.464,3.183c-.056.579-.172,1.208-.229,1.793s-.121,1.21-.121,1.793V395l.057.924Zm-2.432-7.871c.291-.4.634-.811.925-1.272a1.126,1.126,0,0,0-.868,0,1.57,1.57,0,0,0-.693.52,3.13,3.13,0,0,0-.463.752.421.421,0,0,0-.121.232,1.025,1.025,0,0,0-.123.4.745.745,0,0,0-.057.348c0,.057.057.173.121.173h.059a.411.411,0,0,0,.346-.173c.121-.121.176-.232.291-.289Z" transform="translate(-952.427 -367.539)" fill="#e0a65a"/>
              <path id="Path_40-3" data-name="Path 40-3" d="M988.476,385.427a.22.22,0,0,1,.31,0,.27.27,0,0,1,.038.054h0a.269.269,0,0,1,.056.347,3.711,3.711,0,0,1-.986,1.157c-.4.347-.808.636-1.208.927a5.29,5.29,0,0,1-.811.4,1.649,1.649,0,0,1-.925.173,1.1,1.1,0,0,1-.693-.229,1.4,1.4,0,0,1-.464-.521,2.415,2.415,0,0,1-.121-.636c0-.231.059-.407.059-.638.06-.229.121-.405.176-.577a1.379,1.379,0,0,0,.121-.464,4.062,4.062,0,0,0,.173-.463l-1.388,1.389a4.985,4.985,0,0,0-.521.577,5.265,5.265,0,0,1-.58.58,4.185,4.185,0,0,1-.693.4.849.849,0,0,1-.753,0,.748.748,0,0,1-.579-.754,1.743,1.743,0,0,1,.291-.924,5.9,5.9,0,0,1,.464-.752c.288-.405.633-.811.983-1.218a2.812,2.812,0,0,1,1.273-.868,3.708,3.708,0,0,1,.754-.173,1.689,1.689,0,0,1,.521.122,1.3,1.3,0,0,1,.463.288l.693-.693a.433.433,0,0,1,.231-.121c.057,0,.176.057.232.057.059.059.121.121.121.173a.352.352,0,0,1-.056.232,7.163,7.163,0,0,0-.58,1.156,10,10,0,0,0-.4,1.216,2.237,2.237,0,0,0-.175.58,3.336,3.336,0,0,0-.121.75.681.681,0,0,0,.059.347c.056.122.114.232.232.232a.6.6,0,0,0,.459.057,2.014,2.014,0,0,0,.521-.23c.175-.121.348-.175.521-.289s.289-.231.4-.289c.291-.23.58-.463.927-.752A9.592,9.592,0,0,0,988.476,385.427Zm-5.729-.059.637-.636c.23-.232.4-.405.637-.636a2.612,2.612,0,0,0-.637-.059,1.3,1.3,0,0,0-.637.288,4.039,4.039,0,0,0-.577.463l-.523.52a3.576,3.576,0,0,0-.4.58c-.121.173-.232.405-.347.577,0,.06-.059.06-.059.121-.059.057-.059.116-.114.173s-.059.121-.121.175v.121c0,.059.057.059.173,0s.175-.121.291-.175.173-.173.288-.232l.177-.172Z" transform="translate(-950.105 -365.034)" fill="#e0a65a"/>
              <path id="Path_41-3" data-name="Path 41-3" d="M995.6,385.533a.272.272,0,0,1,.347.056.283.283,0,0,1,.121.348,2.093,2.093,0,0,1-.464.754,4.061,4.061,0,0,1-.752.638,2.762,2.762,0,0,1-.868.347,1.289,1.289,0,0,1-.811-.121,2.22,2.22,0,0,1-.754-.695,2.832,2.832,0,0,1-.345-.986,4.416,4.416,0,0,0-.464.636c-.173.234-.288.407-.463.638a2.58,2.58,0,0,1-.347.407c-.121.121-.289.231-.407.347-.173.059-.286.121-.461.173a.943.943,0,0,1-.521-.173.774.774,0,0,1-.347-.405c-.057-.173-.121-.348-.175-.52a1.931,1.931,0,0,1-.059-.58v-.52c0-.346.059-.636.059-.984a4.743,4.743,0,0,0,0-.925,7.524,7.524,0,0,0-.982.925c-.291.348-.58.695-.866,1.1s-.521.754-.812,1.157a7.566,7.566,0,0,1-.809,1.1c-.056.057-.115.121-.172.121a.351.351,0,0,1-.232-.059c-.059-.057-.116-.057-.173-.121s-.057-.121-.057-.231l.172-1.331.059-.695v-.346a.282.282,0,0,1,.175-.348.228.228,0,0,1,.316.064.2.2,0,0,1,.029.057v.059a.933.933,0,0,1,.121.579,1.785,1.785,0,0,1-.057.58v.232c.232-.35.52-.7.754-1.043a11.494,11.494,0,0,1,.752-1.043,6.316,6.316,0,0,1,.809-.925,6.572,6.572,0,0,1,.984-.809.362.362,0,0,1,.347,0,.573.573,0,0,1,.234.289,3.249,3.249,0,0,1,.121,1.272v.289a.727.727,0,0,1-.059.348c0,.173-.057.348-.057.52v.984c0,.173.057.289.057.463.059.175.122.232.173.175.121-.059.173-.121.289-.175a2.561,2.561,0,0,0,.348-.4,2.264,2.264,0,0,1,.289-.405l1.208-1.679c.059-.059.121-.173.232-.173a.266.266,0,0,1,.289,0c.121,0,.172.057.232.173a.445.445,0,0,1,.122.289,7.746,7.746,0,0,0,.121,1.1,1.3,1.3,0,0,0,.577.87.437.437,0,0,0,.523,0,4.238,4.238,0,0,0,.52-.348c.173-.175.347-.291.521-.463A2.5,2.5,0,0,1,995.6,385.533Z" transform="translate(-947.099 -364.964)" fill="#e0a65a"/>
              <path id="Path_42-3" data-name="Path 42-3" d="M996.863,385.6a.277.277,0,0,1,.348.121.213.213,0,0,1,.046.3.182.182,0,0,1-.046.046,3.062,3.062,0,0,1-.866.868,6.506,6.506,0,0,0-.987.754c-.345.23-.634.464-.924.695.059.173.175.348.231.521a1.614,1.614,0,0,1-.056,1.041,2.855,2.855,0,0,1-.58.868,3.028,3.028,0,0,1-.811.693,2.917,2.917,0,0,1-.924.521,3.788,3.788,0,0,1-.464.173,1.269,1.269,0,0,1-.463.057,1.007,1.007,0,0,1-.809-.4.925.925,0,0,1-.172-.52,1.627,1.627,0,0,1,.121-.52,1.247,1.247,0,0,1,.288-.464c.121-.173.232-.289.348-.463a4.967,4.967,0,0,1,.75-.811l.868-.693.347-.289a13.186,13.186,0,0,1-.809-1.043,2.332,2.332,0,0,1-.348-1.272,2.464,2.464,0,0,1,.232-.868,3.268,3.268,0,0,1,.463-.752,3.775,3.775,0,0,1,.695-.637,3.324,3.324,0,0,1,.752-.463.259.259,0,0,1,.289,0l.175.173a.355.355,0,0,1,.059.232.186.186,0,0,1-.177.173,2.772,2.772,0,0,0-.924.695,2.454,2.454,0,0,0-.58.984,1.145,1.145,0,0,0,.059.982,4.019,4.019,0,0,0,.579.811l.291.289.925-.695a11.907,11.907,0,0,0,.984-.752C996.112,385.891,996.459,385.718,996.863,385.6Zm-3.645,4.571a2.044,2.044,0,0,0,.407-.579,1.2,1.2,0,0,0,0-.638l-.291.175c-.231.231-.52.405-.752.636s-.463.4-.7.636c-.173.232-.345.521-.52.809h0c.121,0,.175-.057.289-.057a3.573,3.573,0,0,0,.809-.405,2.84,2.84,0,0,0,.752-.579Z" transform="translate(-943.795 -364.919)" fill="#e0a65a"/>
              <path id="Path_43-3" data-name="Path 43-3" d="M995.241,380.657c-.231.115-.345,0-.121-.175a2.614,2.614,0,0,0,.4-.4c-.114,0-.172-.122-.114-.289.114-.405.695-.464.638-.175A2.081,2.081,0,0,1,995.241,380.657Z" transform="translate(-941.074 -367.034)" fill="#e0a65a"/>
              <path id="Path_44-3" data-name="Path 44-3" d="M1003.431,385.677a.281.281,0,0,1,.35.121.217.217,0,0,1,.043.3.27.27,0,0,1-.043.043,3.116,3.116,0,0,1-.87.868,6.262,6.262,0,0,0-.982.754c-.35.232-.638.461-.929.693.057.175.175.348.231.52a2.1,2.1,0,0,1-.056,1.044,2.9,2.9,0,0,1-.579.866,3.057,3.057,0,0,1-.811.693,2.9,2.9,0,0,1-.927.52c-.121.057-.289.122-.4.175a1.319,1.319,0,0,1-.466.059,1.018,1.018,0,0,1-.809-.405.943.943,0,0,1-.173-.521,1.633,1.633,0,0,1,.121-.52,1.235,1.235,0,0,1,.288-.461c.121-.176.232-.291.348-.464a4.85,4.85,0,0,1,.753-.811l.866-.695.348-.288a12.452,12.452,0,0,1-.808-1.043,2.32,2.32,0,0,1-.35-1.272,2.433,2.433,0,0,1,.23-.87,3.336,3.336,0,0,1,.464-.752,7.521,7.521,0,0,1,.695-.637,3.329,3.329,0,0,1,.752-.464.265.265,0,0,1,.289,0c.057.06.121.122.175.175a.374.374,0,0,1,.056.232.186.186,0,0,1-.173.175,2.807,2.807,0,0,0-.925.693,2.47,2.47,0,0,0-.579.982,1.158,1.158,0,0,0,.059.986,4.023,4.023,0,0,0,.577.809l.289.291.927-.7a10.238,10.238,0,0,0,.984-.752A5.3,5.3,0,0,0,1003.431,385.677Zm-3.586,4.571a2.014,2.014,0,0,0,.4-.579,1.138,1.138,0,0,0,0-.636l-.288.173a8.724,8.724,0,0,0-.754.637c-.229.231-.461.4-.693.636-.173.232-.348.523-.52.811h0c.115,0,.173-.057.288-.057a3.514,3.514,0,0,0,.809-.407,3.645,3.645,0,0,0,.752-.579Z" transform="translate(-939.889 -364.878)" fill="#e0a65a"/>
            </g>
          </g>
          <g id="Group_31-3" data-name="Group 31-3" transform="translate(24.378 33.577)">
            <g id="Group_30-3" data-name="Group 30-3">
              <path id="Path_67-3" data-name="Path 67-3" d="M976.469,392.755l5.728.121-.056.521h-1.452l.866,15.8,5.035-13.716a3.724,3.724,0,0,0,.23-1.1c0-.577-.348-.809-.982-.866h-.811l.122-.523,4.571.059-.059.521H989.2c-.866,0-1.5.579-1.968,1.793l-7.348,20.314h-.7L977.8,393.4h-1.388Z" transform="translate(-976.413 -392.755)" fill="#e0a65a"/>
            </g>
          </g>
          <g id="Group_33-3" data-name="Group 33-3" transform="translate(43.734 33.981)">
            <g id="Group_32-3" data-name="Group 32-3">
              <path id="Path_68-3" data-name="Path 68-3" d="M988.589,415.405l.059-.52h1.5l3.356-21.354H992l.056-.523,10.418.175-.752,4.92h-.52a6.92,6.92,0,0,0-.58-3.358,2.347,2.347,0,0,0-2.024-1.1l-2.141-.057-1.507,9.664h1.507a3.122,3.122,0,0,0,1.736-.579,3.377,3.377,0,0,0,1.04-2.547h.52l-1.1,7.176h-.522a6.882,6.882,0,0,0,.115-1.1,2.623,2.623,0,0,0-.461-1.736,1.649,1.649,0,0,0-1.329-.638H994.9L993.1,414.943l1.736.059a3.165,3.165,0,0,0,2.72-1.272,12.737,12.737,0,0,0,1.911-3.99h.521l-.927,5.844Z" transform="translate(-988.589 -393.009)" fill="#e0a65a"/>
            </g>
          </g>
          <g id="Group_35-3" data-name="Group 35-3" transform="translate(1.039 33.267)">
            <g id="Group_34-3" data-name="Group 34-3">
              <path id="Path_69-3" data-name="Path 69-3" d="M975.618,392.733l-.057.52h-1.507L970.7,414.607h1.5l-.059.518-10.414-.172.752-4.917H963a6.946,6.946,0,0,0,.58,3.354,2.353,2.353,0,0,0,2.024,1.1l2.141.059,1.5-9.661h-1.505a3.119,3.119,0,0,0-1.738.579,3.383,3.383,0,0,0-1.04,2.547h-.52l1.1-7.176h.52a7.093,7.093,0,0,0-.121,1.1,2.62,2.62,0,0,0,.464,1.738,1.643,1.643,0,0,0,1.331.636H969.3L971.1,393.2l-1.736-.056a3.158,3.158,0,0,0-2.72,1.272,12.756,12.756,0,0,0-1.911,3.99h-.52l.927-5.846Z" transform="translate(-961.732 -392.56)" fill="#e0a65a"/>
            </g>
          </g>
        </g>
      </g>
      <g id="Group_65" data-name="Group 65" transform="translate(289.099 283.204)">
        <path id="Path_244" data-name="Path 244" d="M936.3,346.2c6.365.234,12.731.87,19.039,1.68,6.307.866,12.613,1.85,18.923,3.122,6.249,1.272,12.5,2.782,18.635,4.513,6.189,1.679,12.265,3.763,18.284,5.9l8.914,3.531,2.141.866,2.2.695,1.1.348,1.1.288,2.254.579a49.179,49.179,0,0,0,18.4.924,48.618,48.618,0,0,0,9.027-2.141,50.854,50.854,0,0,0,8.508-3.819,57.88,57.88,0,0,0,7.811-5.267c1.216-.982,2.432-2.025,3.588-3.122a46.168,46.168,0,0,0,3.3-3.415,37.661,37.661,0,0,1-2.949,3.819c-1.043,1.215-2.2,2.372-3.3,3.47a55,55,0,0,1-7.58,6.02,47.936,47.936,0,0,1-18,7.233,50.267,50.267,0,0,1-9.779.752,60.2,60.2,0,0,1-9.721-1.157c-.811-.173-1.561-.405-2.372-.579l-1.216-.289-1.157-.347-2.315-.752-2.315-.868-4.456-1.738-4.4-1.734-4.456-1.62c-1.5-.521-2.947-1.1-4.456-1.563l-4.513-1.451q-1.128-.346-2.256-.695l-2.259-.693c-6.017-1.909-12.212-3.415-18.342-4.976C961.346,350.663,948.906,348.116,936.3,346.2Z" transform="translate(-936.296 -346.205)" fill="#0d2022"/>
      </g>
      <g id="Group_66" data-name="Group 66" transform="translate(289.099 338.582)">
        <path id="Path_245" data-name="Path 245" d="M936.3,381.04a179.169,179.169,0,0,0,9.259,15.51,117.878,117.878,0,0,0,10.936,14.119,82.27,82.27,0,0,0,13.136,11.863l1.795,1.272,1.909,1.216c.637.4,1.273.75,1.909,1.156.636.348,1.272.754,1.965,1.1a76.473,76.473,0,0,0,8.278,3.7,44.809,44.809,0,0,1-8.969-2.141,22.461,22.461,0,0,1-2.141-.868c-.69-.289-1.451-.579-2.141-.925L970.148,426l-2.027-1.156a61.011,61.011,0,0,1-14.236-11.864,82.5,82.5,0,0,1-10.646-15.045A77.033,77.033,0,0,1,936.3,381.04Z" transform="translate(-936.296 -381.04)" fill="#0d2022"/>
      </g>
      <g id="Group_67" data-name="Group 67" transform="translate(370.806 287.834)">
        <path id="Path_246" data-name="Path 246" d="M987.692,349.118a53,53,0,0,0,9.43,6.017,33.187,33.187,0,0,0,10.241,3.356,27.326,27.326,0,0,0,5.321.232,33.829,33.829,0,0,0,5.319-.868,45.251,45.251,0,0,0,10.187-4.515,25.583,25.583,0,0,1-9.432,6.714,24.95,24.95,0,0,1-5.785,1.451,23.4,23.4,0,0,1-6.019-.121A27.542,27.542,0,0,1,995.96,357.1,29.426,29.426,0,0,1,987.692,349.118Z" transform="translate(-987.692 -349.118)" fill="#0d2022"/>
      </g>
      <path id="Path_247" data-name="Path 247" d="M926.649,327.2c5.3-1.108,10.224-2.96,13.675-6.477l-1.544,8.713Z" transform="translate(-652.886 -78.027)" fill="#0d2022"/>
      <path id="Path_248" data-name="Path 248" d="M1071.954,410.706c-23.544,12.988-47.088,25.461-70.632,23.53,26.074,8.159,49.374-2.612,70.634-15.234Z" transform="translate(-608.848 -24.962)" fill="#0d2022"/>
      <path id="Path_249" data-name="Path 249" d="M1045.916,477.531l6.1-28.132-7.831-31.355Z" transform="translate(-583.571 -20.635)" fill="#0e2c32"/>
      <path id="Path_250" data-name="Path 250" d="M998.514,210.416s17.654,24.514,23.811,16.61-3.291-14.5-3.291-14.5Z" transform="translate(-610.504 -143.083)" fill="#e0a65a"/>
      <path id="Path_251" data-name="Path 251" d="M1014.432,217.549s-22.048,11.383-27.085,7.488-2.407-9.725,3.711-12.9,16.382-5.227,16.382-5.227Z" transform="translate(-618.655 -145.153)" fill="#e0a65a"/>
      <path id="Path_252" data-name="Path 252" d="M992.8,215.615a10.069,10.069,0,0,1,.277,1.625c.052.5.084.992.092,1.488a15.177,15.177,0,0,1-.216,3,9.631,9.631,0,0,1-2.811,5.585l-.583.507-.332.218a2.81,2.81,0,0,0-.591.521,2.747,2.747,0,0,0-.646,1.591,7.525,7.525,0,0,0,1.135,4.256,8.525,8.525,0,0,1-3.1-3.962,5.3,5.3,0,0,1-.152-3.008,5.954,5.954,0,0,1,.58-1.494l.409-.692.161-.4a4.921,4.921,0,0,0-.03-3.176,9.248,9.248,0,0,0-.655-1.653c-.134-.27-.283-.539-.439-.793-.143-.221-.348-.574-.45-.6Z" transform="translate(-618.211 -140.017)" fill="#e0a65a"/>
      <path id="Path_253" data-name="Path 253" d="M1015.277,215.615a11.447,11.447,0,0,1,.337,1.847c.067.571.1,1.141.113,1.715a14.782,14.782,0,0,1-.343,3.509,10.255,10.255,0,0,1-1.424,3.445,7.087,7.087,0,0,1-2.072,2.094,2.36,2.36,0,0,0-.712,1.5,7.4,7.4,0,0,0,.118,2.374,19.333,19.333,0,0,0,1.82,5.022,20.356,20.356,0,0,1-3.663-4.28,9.941,9.941,0,0,1-1.243-2.844,6.061,6.061,0,0,1,.234-3.747,6.1,6.1,0,0,0,1.06-2.307,5.212,5.212,0,0,0-.057-1.76,8.932,8.932,0,0,0-.583-1.885c-.138-.315-.285-.628-.452-.93a3.06,3.06,0,0,0-.485-.73Z" transform="translate(-604.954 -140.017)" fill="#e0a65a"/>
      <path id="Rectangle_48" data-name="Rectangle 48" d="M988.669,221.942,992,189.475l39.434,4.052-3.335,32.467C1013.948,227.6,1000.734,226.453,988.669,221.942Z" transform="translate(-616.31 -155.433)" fill="#fff"/>
      <g id="Group_68" data-name="Group 68" transform="translate(374.036 43.773)">
        <path id="Path_254" data-name="Path 254" d="M1022.478,202.829a23.558,23.558,0,0,1-13.947-6.364l-.871-.87-.982.754a19.372,19.372,0,0,1-13.656,3.877,25.315,25.315,0,0,1-3.008-.52l-.289,2.893a25.329,25.329,0,0,0,3.006.52,22.564,22.564,0,0,0,14.753-3.7,26.765,26.765,0,0,0,21.811,6.078l.286-3.008A24.309,24.309,0,0,1,1022.478,202.829Z" transform="translate(-989.724 -195.596)" fill="#d7d7d7"/>
      </g>
      <path id="Path_255" data-name="Path 255" d="M999.005,197.216a25.684,25.684,0,0,1-3.012-14.812" transform="translate(-612.063 -159.603)" fill="none" stroke="#000" stroke-miterlimit="10" stroke-width="5"/>
      <path id="Path_256" data-name="Path 256" d="M873.715,301.914c14.751-4.644,30.143-4.31,46.037,0q-15.4-10.678-40.965-5.5Z" transform="translate(-684.104 -93.364)" fill="#d7d7d7" opacity="0.57"/>
      <path id="Path_257" data-name="Path 257" d="M880.394,299.246l-12.119,3.505-5.892,16.082Z" transform="translate(-690.786 -90.696)" fill="#fff"/>
      <path id="Path_258" data-name="Path 258" d="M873.715,299.9c6.43.946,14.618,6.227,23.018,12.038-6.349-6.853-13.044-12.71-21.39-13.8Z" transform="translate(-684.104 -91.351)" fill="#d7d7d7" opacity="0.57"/>
      <path id="Path_259" data-name="Path 259" d="M1049.257,349.131c2.533-7.572,10.567-17.215,25.924-23.2-14.489,9.658-18.776,22.484-25.253,31.855Z" transform="translate(-580.578 -74.96)" fill="#d7d7d7" opacity="0.57"/>
      <path id="Path_260" data-name="Path 260" d="M1088.614,323.124c-9.6,1.444-17.826,4.7-24.16,10.435a57.4,57.4,0,0,1,23.819-5.216Z" transform="translate(-571.616 -76.614)" fill="#d7d7d7" opacity="0.57"/>
      <path id="Path_261" data-name="Path 261" d="M890.357,302.964c11-2.66,22.942-1.059,35.347,2.706C912.362,303.271,900.272,302.072,890.357,302.964Z" transform="translate(-674.289 -89.28)" fill="#d7d7d7" opacity="0.57"/>
      <path id="Path_262" data-name="Path 262" d="M1062.952,255.873c-11.426,4.647-20.055,13.02-28.085,22.194,8.464-7.583,17.68-14.486,31.589-17.171C1065.4,258.687,1064.295,256.685,1062.952,255.873Z" transform="translate(-589.065 -116.275)" fill="#d7d7d7" opacity="0.57"/>
      <path id="Path_263" data-name="Path 263" d="M1023.959,301.314c-.054-2.854,14.456-25.118,29.682-25.5-12.723,3.413-29.948,27.644-27.757,29.24Z" transform="translate(-595.498 -104.513)" fill="#d7d7d7" opacity="0.57"/>
      <path id="Path_264" data-name="Path 264" d="M923.7,247.061c10.131,3.181,12.133,16.618,11.426,33.472,1.745-14.29,1.763-27.267-5.712-34.534A23.919,23.919,0,0,0,923.7,247.061Z" transform="translate(-654.627 -122.098)" fill="#d7d7d7" opacity="0.57"/>
      <path id="Path_265" data-name="Path 265" d="M935.615,258.587c6.361,8.631,4.957,16.928,0,25.075A37.934,37.934,0,0,0,935.615,258.587Z" transform="translate(-647.599 -114.674)" fill="#d7d7d7" opacity="0.57"/>
      <path id="Path_266" data-name="Path 266" d="M1022.331,238.786c-4.1,9.476-12.1,11.936-20.013,14.553,9.578-.9,18.544-3.45,25.242-12.133Z" transform="translate(-608.261 -126.352)" fill="#d7d7d7" opacity="0.57"/>
      <path id="Path_267" data-name="Path 267" d="M978.019,243.158c-1.21,3.8,5.739,5.777,13.364,7.6-10.753-.531-18.292-2.566-21.788-6.491Z" transform="translate(-627.559 -123.773)" fill="#d7d7d7" opacity="0.57"/>
      <circle id="Ellipse_18" data-name="Ellipse 18" cx="20.716" cy="20.716" r="20.716" transform="translate(358.587 6.713)" fill="#fff"/>
      <circle id="Ellipse_19" data-name="Ellipse 19" cx="25.404" cy="25.404" r="25.404" transform="translate(383.875)" fill="#fff"/>
      <path id="Path_332" data-name="Path 332" d="M1079.172,293.816l-30.865,72.058,3.565,4.707L1082,301.33Z" transform="translate(-581.138 -93.898)" fill="#d7d7d7"/>
    </g>
    <g id="Group_72" data-name="Group 72" transform="translate(1221.576 328.771)">
      <path id="Path_268" data-name="Path 268" d="M1129.227,455.869a89.7,89.7,0,0,0,14.416,4.332c2.073.442,8.3-9.539,8.3-9.539s2.439,11.244,4.65,11.411a76.117,76.117,0,0,0,13.869-.127l-14.564-47.355Z" transform="translate(-1000.548 -123.285)" fill="#fff"/>
      <path id="Path_269" data-name="Path 269" d="M1154.844,290.576l13.459-26.964,40.286,14.341-4.439,28.126-35.24,9.694Z" transform="translate(-985.44 -212.325)" fill="#c0a487"/>
      <path id="Path_270" data-name="Path 270" d="M1154.419,276.578,1186.26,294.8l29.011,3.191,12.707,23.621-66.729,52.913L1146,314.28Z" transform="translate(-990.655 -204.678)" fill="#fff"/>
      <path id="Path_271" data-name="Path 271" d="M1151.345,286l15.9,21.47L1178.9,294.8l3.726,1.9,3.688,4.259,2.532,9.887,16.611-8.17-16.511,4.795-2.283-7.125-5.383-11.357-5.843,5.973-8.189,6.432Z" transform="translate(-987.504 -199.12)" fill="#d7d7d7"/>
      <path id="Path_272" data-name="Path 272" d="M1205.921,370.013s41.991,84.742,54.571,94.057,117,14.1,117,14.1l6.254-30.7-84.569-45.92L1237.9,301.255C1231.818,326.764,1221.544,349.9,1205.921,370.013Z" transform="translate(-955.318 -190.125)" fill="#fff"/>
      <path id="Path_273" data-name="Path 273" d="M1173.4,296.03l6.66,5.34,1.825-.547-8.64-6.462Z" transform="translate(-974.587 -194.191)" fill="#d7d7d7" opacity="0.4" style="isolation: isolate"/>
      <path id="Path_274" data-name="Path 274" d="M1195.58,274.071l-62.655,6.334c5.06.021-19.428,133.451-54.153,205.6-17.241,35.82,82.684,66.006,82.684,66.006,12.082-12.292,20.169-38.3,25.253-54.565,1.558,17.052,8.769,44.007,15.163,57.5l84.278-25.253s-27.641-71.211-17.36-104.175,57.32-87.013,45.416-108.068c-2.606-4.6-55.093-22.353-55.093-22.353-18.656,29.309-37.213,55.473-55.633,77.546C1197.351,338.23,1194.359,305.211,1195.58,274.071Z" transform="translate(-1031.483 -206.157)" fill="#161616"/>
      <g id="Group_70" data-name="Group 70" transform="translate(173.343 77.283)">
        <path id="Path_275" data-name="Path 275" d="M1175.379,297.534c-1.9.909-8.027,1.679-12.817,1.62-3.707.211-6.18-4.232-4.9-7.72l2.418-6.577c1.259-3.42,5.278-6.445,7.992-4.013,3.685,2.981,9.171,8.375,9.489,10.329Z" transform="translate(-1157.322 -279.964)" fill="#0e2c32"/>
        <path id="Path_276" data-name="Path 276" d="M1173.015,290.313l-8.925-6.116,8.6,7.062Z" transform="translate(-1153.331 -277.468)" fill="#0c1e21"/>
        <path id="Path_277" data-name="Path 277" d="M1174.845,291.249l-11.931-5.493-2.724-.451Z" transform="translate(-1155.63 -276.815)" fill="#0c1e21"/>
        <path id="Path_278" data-name="Path 278" d="M1174.57,289.87l-14.419-1.146,9.211,1.644Z" transform="translate(-1155.654 -274.798)" fill="#0c1e21"/>
        <path id="Path_279" data-name="Path 279" d="M1173.568,288.638c1.9-.911,8.774-1.68,13.557-1.622,3.709-.211,5.44,4.232,4.151,7.72l-2.418,6.578c-1.259,3.421-5.273,5.2-7.988,2.765-3.685-2.981-9.171-7.127-9.488-9.079Z" transform="translate(-1149.03 -275.81)" fill="#0e2c32"/>
        <path id="Path_280" data-name="Path 280" d="M1171.736,291.355l8.925,6.117-8.6-7.062Z" transform="translate(-1148.822 -273.803)" fill="#0c1e21"/>
        <path id="Path_281" data-name="Path 281" d="M1172.031,290.005l11.926,5.494,2.725.451Z" transform="translate(-1148.647 -274.043)" fill="#0c1e21"/>
        <path id="Path_282" data-name="Path 282" d="M1172.217,289.79l14.417,1.145-9.208-1.644Z" transform="translate(-1148.538 -274.464)" fill="#0c1e21"/>
        <path id="Path_283" data-name="Path 283" d="M1171.049,287.014c-2.52,1.3-3.265,3.41-2.19,6.361Z" transform="translate(-1150.8 -275.807)" fill="#0c1e21"/>
        <path id="Path_284" data-name="Path 284" d="M1173.57,288.033c1.34,2.866-.113,4.726-2.191,6.362" transform="translate(-1149.032 -275.206)" fill="#0c1e21"/>
        <path id="Path_285" data-name="Path 285" d="M1170.875,287.014a9.6,9.6,0,0,0-2.192,6.361l4.291,1.622a11.122,11.122,0,0,0,2.191-6.362Z" transform="translate(-1150.624 -275.807)" fill="#0e2c32"/>
      </g>
      <path id="Path_286" data-name="Path 286" d="M1150.173,279.4s-45.842,7.768-57.242,15.287-52.767,98.38-43.232,107.914,183.815,50.249,183.815,50.249l5.693-33.175L1125.7,366.626l18.19-34.836C1147.893,313.435,1150.788,297.814,1150.173,279.4Z" transform="translate(-1048.284 -203.014)" fill="#fff"/>
      <path id="Path_287" data-name="Path 287" d="M1151.42,274.073l10.219.94-3.434,6.995-6.909-3.952Z" transform="translate(-987.533 -206.156)"/>
      <path id="Path_288" data-name="Path 288" d="M1187.155,284.924l7.388,3.693-2.841,4.456-5.734-.63Z" transform="translate(-967.086 -199.756)"/>
      <path id="Path_289" data-name="Path 289" d="M1112.945,278.114a5.331,5.331,0,0,0-2.628,2.919l3.273-.874C1113.581,279.009,1113.481,278.075,1112.945,278.114Z" transform="translate(-1011.7 -203.773)"/>
      <path id="Path_290" data-name="Path 290" d="M1113.938,421.627s-22.185.946-22.956,4.418-1.161-14.85-1.161-14.85Z" transform="translate(-1023.788 -125.288)" fill="#0c1e21"/>
      <path id="Path_291" data-name="Path 291" d="M1115.786,279.4l-5.359.96c2.127,19.012,1.033,33.3-3.833,57C1116.075,320.985,1117.021,306.494,1115.786,279.4Z" transform="translate(-1013.896 -203.014)" fill="#d7d7d7"/>
      <path id="Path_292" data-name="Path 292" d="M1104.991,423.7s13.694,6.927,29.512,6.348,35.11-6.892,35.11-6.892L1137.3,407.674Z" transform="translate(-1014.841 -127.365)" fill="#0c1e21"/>
      <path id="Path_293" data-name="Path 293" d="M1236.708,301.255c13.4,22.317-7.437,48.282-28.765,74.3C1224.58,350.051,1238.433,324.839,1236.708,301.255Z" transform="translate(-954.125 -190.125)" fill="#d7d7d7"/>
      <path id="Path_294" data-name="Path 294" d="M1114.538,340.938l-1.372-6.736c6.79-4.8,30.572,17.672,46.872,17.478s48.327,21.051,45,31.552-13.362,92.67-13.362,92.67-2.7-9.259-25.463-11.187-76,10.449-76.386-5.577S1114.538,340.938,1114.538,340.938Z" transform="translate(-1023.789 -171.092)" fill="#0e2c32"/>
      <path id="Path_295" data-name="Path 295" d="M1105.531,333.955l-2.765,4.8,4.137,1.935A9.014,9.014,0,0,0,1105.531,333.955Z" transform="translate(-1016.153 -170.84)" fill="#0c1618"/>
      <g id="Group_37-3" data-name="Group 37-3" transform="translate(97.285 211.37)">
        <g id="Group_36-4" data-name="Group 36-4">
          <g id="Group_26-4" data-name="Group 26-4" transform="translate(3.593)">
            <g id="Group_25-4" data-name="Group 25-4">
              <path id="Path_38-4" data-name="Path 38-4" d="M1134.423,374.166a5.676,5.676,0,0,1-1.256.159c-.4.013-.847.057-1.243.072a10.168,10.168,0,0,0-1.119.1,7.694,7.694,0,0,1-1.115.094c-.284,1.044-.612,2.079-.9,3.122q-.494,1.555-.987,3.1c-.294.866-.582,1.693-.87,2.513s-.585,1.693-.873,2.512-.626,1.68-.914,2.5-.626,1.68-1,2.486a.424.424,0,0,1-.208.18.534.534,0,0,1-.261-.006.417.417,0,0,1-.181-.21.613.613,0,0,1,.016-.3c.353-.944.709-1.885,1.052-2.782s.709-1.885,1.059-2.78c.575-1.647,1.159-3.337,1.693-4.99s1.075-3.351,1.571-5.055l.025-.127c-1.167.13-2.34.3-3.48.525s-2.278.445-3.426.709l-5.2,6.122a.243.243,0,0,1-.242.087c-.083-.016-.17-.033-.2-.083-.078-.06-.111-.11-.1-.194-.026-.094.033-.169.094-.242l3.451-4.084a4.205,4.205,0,0,1,.561-.641c.175-.229.394-.451.559-.639l-.321.071q-2.215.568-4.326,1.285c-1.409.485-2.825,1-4.2,1.572a.312.312,0,0,1-.221,0c-.033-.051-.121-.067-.1-.151a.325.325,0,0,1,0-.219c.016-.084.065-.121.156-.146.811-.327,1.572-.665,2.385-1s1.6-.574,2.4-.86,1.634-.523,2.428-.768,1.625-.483,2.5-.668l4.306-5.106c.51-.6.967-1.175,1.471-1.738s.968-1.135,1.474-1.739c.444-.483.887-.968,1.364-1.409a6.98,6.98,0,0,1,1.614-1.1.325.325,0,0,1,.38.073.35.35,0,0,1,.1.37c-.234,1.01-.463,1.976-.688,2.943s-.5,1.925-.776,2.924c-.145.544-.3,1.129-.45,1.671s-.292,1.089-.448,1.671c.353-.021.76-.075,1.116-.1.4-.011.76-.076,1.116-.1s.749-.033,1.1-.052a4.712,4.712,0,0,1,1.129.084.155.155,0,0,1,.121.065c.033.051.027.094.064.143l-.026.127A.131.131,0,0,0,1134.423,374.166Zm-8.993.443c.59-.106,1.223-.207,1.812-.313s1.218-.164,1.851-.264c.8-2.833,1.572-5.714,2.253-8.613a6.511,6.511,0,0,0-1.318,1.154c-.395.453-.779.863-1.172,1.313-1.062,1.2-2.092,2.458-3.1,3.628-1.019,1.21-2.04,2.418-3.1,3.628.455-.091.919-.221,1.375-.31.447-.052.9-.142,1.4-.227Z" transform="translate(-1111.739 -364.309)" fill="#e0a65a"/>
              <path id="Path_39-4" data-name="Path 39-4" d="M1125.171,382.734a.333.333,0,0,1,.137.2.567.567,0,0,1,0,.262.29.29,0,0,1-.312.248l-.041-.008a.489.489,0,0,1-.315-.192.713.713,0,0,1-.113-.329,1.231,1.231,0,0,1-.011-.4,1.234,1.234,0,0,0,.032-.389c.06-.558.156-1.067.261-1.617.2-.839.448-1.671.687-2.459.288-.823.569-1.6.9-2.42l-.384.41a.242.242,0,0,1-.171.189l-.157.145a6.726,6.726,0,0,0-.6.59,6.5,6.5,0,0,1-.63.537,6.155,6.155,0,0,1-.645.4.658.658,0,0,1-.739-.051.561.561,0,0,1-.324-.369.848.848,0,0,1-.046-.448,2.184,2.184,0,0,1,.18-.493c.121-.154.194-.315.308-.467a3.036,3.036,0,0,1,.386-.41c.108-.111.261-.215.319-.291a1.673,1.673,0,0,1,1.234-.248,1,1,0,0,1,.56.281c.108-.11.216-.223.326-.332a3.815,3.815,0,0,0,.337-.375c.157-.146.281-.343.45-.529.121-.2.285-.34.408-.536l.71-1.664c.085-.205.218-.442.3-.645s.215-.442.3-.645a1.312,1.312,0,0,1,.3-.383.982.982,0,0,1,.444-.267.193.193,0,0,1,.211.04.328.328,0,0,1,.046.227,10.114,10.114,0,0,1-.726,1.531c-.273.517-.537.994-.855,1.506-.272.738-.553,1.52-.824,2.257s-.552,1.518-.781,2.265c-.121.415-.3.866-.421,1.281s-.252.873-.333,1.3l-.121.634-.121.638-.086.685Zm-.687-6.1c.27-.254.582-.5.857-.8a.841.841,0,0,0-.636-.122,1.2,1.2,0,0,0-.58.285,2.571,2.571,0,0,0-.445.483.338.338,0,0,0-.121.154.836.836,0,0,0-.143.28.544.544,0,0,0-.089.242c-.009.041.019.134.059.142l.043.008a.312.312,0,0,0,.28-.078c.1-.068.155-.146.249-.172Z" transform="translate(-1105.281 -360.94)" fill="#e0a65a"/>
              <path id="Path_40-4" data-name="Path 40-4" d="M1132.243,375.9a.16.16,0,0,1,.242.089h0a.2.2,0,0,1,0,.264,2.805,2.805,0,0,1-.881.711c-.347.2-.681.353-1.017.507a3.7,3.7,0,0,1-.65.184,1.235,1.235,0,0,1-.7,0,.812.812,0,0,1-.474-.266,1,1,0,0,1-.267-.445,1.907,1.907,0,0,1,0-.485c.032-.169.1-.288.132-.458.073-.161.141-.28.207-.4a.949.949,0,0,0,.148-.321c.061-.079.122-.2.194-.315l-1.21.822a3.991,3.991,0,0,0-.464.353,4.3,4.3,0,0,1-.5.342,2.982,2.982,0,0,1-.564.2.65.65,0,0,1-.552-.1.559.559,0,0,1-.32-.631,1.275,1.275,0,0,1,.34-.637,4.4,4.4,0,0,1,.445-.483c.269-.258.577-.506.887-.754a2.082,2.082,0,0,1,1.052-.458,2.693,2.693,0,0,1,.577-.024,1.284,1.284,0,0,1,.363.157.881.881,0,0,1,.3.277l.606-.412a.312.312,0,0,1,.183-.054c.043.01.121.067.159.075a.216.216,0,0,1,.06.143.264.264,0,0,1-.073.16,5.3,5.3,0,0,0-.585.768,7.346,7.346,0,0,0-.466.833,1.614,1.614,0,0,0-.207.4,2.53,2.53,0,0,0-.192.536.557.557,0,0,0,0,.262c.028.092.054.184.14.2a.459.459,0,0,0,.329.108,1.61,1.61,0,0,0,.413-.1c.143-.062.278-.079.421-.14s.244-.129.337-.156c.243-.13.483-.259.782-.421A7.517,7.517,0,0,0,1132.243,375.9Zm-4.184-.839.553-.377.555-.378a1.93,1.93,0,0,0-.458-.13.943.943,0,0,0-.5.121,3.068,3.068,0,0,0-.483.259l-.453.308a2.471,2.471,0,0,0-.378.362c-.11.111-.227.264-.335.375-.008.041-.051.035-.057.076-.051.035-.059.076-.108.111s-.059.076-.108.111l-.017.086c0,.041.035.049.121.025s.146-.062.242-.087.151-.1.242-.129l.153-.1Z" transform="translate(-1103.596 -358.852)" fill="#e0a65a"/>
              <path id="Path_41-4" data-name="Path 41-4" d="M1137.477,377.042a.205.205,0,0,1,.243.091.208.208,0,0,1,.036.27,1.518,1.518,0,0,1-.444.483,2.854,2.854,0,0,1-.639.364,2.044,2.044,0,0,1-.682.132.937.937,0,0,1-.577-.2,1.6,1.6,0,0,1-.455-.61,2.147,2.147,0,0,1-.121-.768,3.311,3.311,0,0,0-.429.4c-.156.145-.267.256-.428.4a1.75,1.75,0,0,1-.31.242c-.1.068-.242.13-.345.2-.134.019-.227.044-.363.064a.679.679,0,0,1-.356-.2.562.562,0,0,1-.2-.343c-.018-.135-.038-.269-.055-.405a1.412,1.412,0,0,1,.038-.431l.07-.38c.049-.256.134-.459.179-.714a3.5,3.5,0,0,0,.13-.679,5.76,5.76,0,0,0-.846.542c-.259.213-.52.428-.787.685s-.483.483-.754.734a5.925,5.925,0,0,1-.747.692.241.241,0,0,1-.143.06.256.256,0,0,1-.16-.075c-.033-.051-.078-.059-.113-.108s-.024-.092-.01-.176l.315-.952.137-.5.051-.254a.206.206,0,0,1,.172-.229.177.177,0,0,1,.242.134v.041a.72.72,0,0,1,0,.44,1.4,1.4,0,0,1-.121.417l-.016.083-.017.086c.218-.223.484-.434.695-.658a9.126,9.126,0,0,1,.7-.658,4.519,4.519,0,0,1,.725-.564,5.171,5.171,0,0,1,.833-.458.282.282,0,0,1,.254.049.447.447,0,0,1,.13.242,2.332,2.332,0,0,1-.1.947l-.043.213a.52.52,0,0,1-.086.242c-.025.121-.092.242-.116.374l-.073.383-.065.337c-.022.127,0,.219-.021.348.019.133.051.186.1.151.094-.025.142-.06.235-.087a1.876,1.876,0,0,0,.312-.248,1.735,1.735,0,0,1,.269-.258l1.122-1.059c.051-.035.106-.113.194-.094a.2.2,0,0,1,.211.04c.086.016.121.067.146.159a.328.328,0,0,1,.044.227,6.431,6.431,0,0,0-.07.82.969.969,0,0,0,.308.715.314.314,0,0,0,.377.073,3.312,3.312,0,0,0,.431-.183c.151-.1.294-.162.445-.265A1.845,1.845,0,0,1,1137.477,377.042Z" transform="translate(-1101.441 -358.459)" fill="#e0a65a"/>
              <path id="Path_42-4" data-name="Path 42-4" d="M1138.56,377.293a.2.2,0,0,1,.242.13.16.16,0,0,1-.01.227.126.126,0,0,1-.038.027,2.286,2.286,0,0,1-.757.515,4.605,4.605,0,0,0-.825.413c-.286.121-.529.251-.776.378.021.137.078.278.1.415a1.18,1.18,0,0,1-.188.754,2.148,2.148,0,0,1-.543.555,4.048,4.048,0,0,1-1.442.649,3.443,3.443,0,0,1-.362.062.931.931,0,0,1-.345-.022.75.75,0,0,1-.539-.41.709.709,0,0,1-.054-.405,1.294,1.294,0,0,1,.159-.362.955.955,0,0,1,.277-.3c.108-.111.207-.18.32-.289a3.873,3.873,0,0,1,.661-.485l.733-.388.294-.162c-.164-.285-.315-.576-.45-.874a1.75,1.75,0,0,1-.075-.981,1.783,1.783,0,0,1,.289-.6,2.41,2.41,0,0,1,.442-.485,2.763,2.763,0,0,1,.6-.369,2.451,2.451,0,0,1,.615-.237.2.2,0,0,1,.212.04c.033.051.067.1.1.153a.278.278,0,0,1,.01.176.139.139,0,0,1-.151.1,2.085,2.085,0,0,0-.774.38,1.827,1.827,0,0,0-.563.639.863.863,0,0,0-.092.725,3.027,3.027,0,0,0,.311.676l.169.25.777-.378a7.99,7.99,0,0,0,.825-.415C1137.97,377.4,1138.249,377.318,1138.56,377.293Zm-3.3,2.838a1.466,1.466,0,0,0,.378-.362.877.877,0,0,0,.091-.466l-.235.086c-.2.137-.439.226-.637.364s-.4.232-.6.369c-.159.145-.327.334-.5.521h0c.089.017.137-.019.223,0a2.631,2.631,0,0,0,.649-.184,2,2,0,0,0,.631-.318Z" transform="translate(-1099.193 -357.986)" fill="#e0a65a"/>
              <path id="Path_43-4" data-name="Path 43-4" d="M1137.692,373.6c-.186.051-.254-.049-.062-.145a1.85,1.85,0,0,0,.353-.242c-.086-.016-.107-.11-.045-.229.142-.278.574-.242.49-.037C1138.331,373.238,1137.937,373.47,1137.692,373.6Z" transform="translate(-1096.538 -359.31)" fill="#e0a65a"/>
              <path id="Path_44-4" data-name="Path 44-4" d="M1143.354,378.253a.208.208,0,0,1,.243.134.161.161,0,0,1-.013.229.121.121,0,0,1-.037.025,2.313,2.313,0,0,1-.755.513,4.91,4.91,0,0,0-.827.413c-.283.121-.529.251-.774.38.018.135.078.278.1.413a1.6,1.6,0,0,1-.186.755,2.161,2.161,0,0,1-.545.556,2.208,2.208,0,0,1-.69.394,2.166,2.166,0,0,1-.749.253c-.1.025-.229.044-.321.07a.926.926,0,0,1-.35-.021.754.754,0,0,1-.534-.409.7.7,0,0,1-.054-.407,1.207,1.207,0,0,1,.156-.362.9.9,0,0,1,.277-.3c.106-.111.208-.178.319-.291a3.678,3.678,0,0,1,.661-.483l.733-.386.294-.164a9.683,9.683,0,0,1-.45-.876,1.781,1.781,0,0,1-.078-.981,1.827,1.827,0,0,1,.291-.6,2.614,2.614,0,0,1,.442-.483,5.682,5.682,0,0,1,.6-.362,2.46,2.46,0,0,1,.614-.237.205.205,0,0,1,.213.04c.03.051.067.1.1.153a.251.251,0,0,1,.008.176.135.135,0,0,1-.149.1,2.087,2.087,0,0,0-.775.38,1.806,1.806,0,0,0-.559.639.861.861,0,0,0-.1.727,3.116,3.116,0,0,0,.31.674l.172.251.776-.378a8.362,8.362,0,0,0,.825-.413A4.177,4.177,0,0,0,1143.354,378.253Zm-3.264,2.847a1.487,1.487,0,0,0,.378-.362.89.89,0,0,0,.089-.466l-.242.086a6.1,6.1,0,0,0-.638.362c-.2.138-.4.232-.6.369-.158.146-.328.334-.491.52h0c.081.017.134-.018.219,0a2.623,2.623,0,0,0,.647-.184,2.68,2.68,0,0,0,.631-.32Z" transform="translate(-1096.34 -357.408)" fill="#e0a65a"/>
            </g>
          </g>
          <g id="Group_31-4" data-name="Group 31-4" transform="translate(19.001 24.761)">
            <g id="Group_30-4" data-name="Group 30-4">
              <path id="Path_67-4" data-name="Path 67-4" d="M1122.636,379.884l4.176.882-.111.372-1.059-.2-1.561,11.685,5.591-9.341a2.748,2.748,0,0,0,.323-.773c.078-.423-.143-.641-.606-.771l-.59-.113.156-.362,3.34.677-.121.374-.339-.064c-.636-.121-1.183.215-1.692,1.04l-8.206,13.847-.507-.1,2.082-16.5-1.014-.192Z" transform="translate(-1121.431 -379.884)" fill="#e0a65a"/>
            </g>
          </g>
          <g id="Group_33-4" data-name="Group 33-4" transform="translate(31.162 28.225)">
            <g id="Group_32-4" data-name="Group 32-4">
              <path id="Path_68-4" data-name="Path 68-4" d="M1129.081,397.973l.122-.374,1.1.21,5.426-15.165-1.1-.208.115-.374,7.6,1.572-1.235,3.5-.38-.073a5.176,5.176,0,0,0,.044-2.539,1.747,1.747,0,0,0-1.331-1.087l-1.561-.34-2.444,6.865,1.1.208a2.322,2.322,0,0,0,1.351-.181,2.521,2.521,0,0,0,1.118-1.72l.38.073-1.8,5.1-.382-.073a5.067,5.067,0,0,0,.242-.789,1.99,1.99,0,0,0-.1-1.335,1.225,1.225,0,0,0-.885-.65l-1.143-.218-2.858,7.884,1.262.283a2.358,2.358,0,0,0,2.168-.553,9.48,9.48,0,0,0,1.952-2.66l.381.072-1.49,4.151Z" transform="translate(-1129.081 -382.063)" fill="#e0a65a"/>
            </g>
          </g>
          <g id="Group_35-4" data-name="Group 35-4" transform="translate(0 21.759)">
            <g id="Group_34-4" data-name="Group 34-4">
              <path id="Path_69-4" data-name="Path 69-4" d="M1122.745,379.578l-.121.374-1.1-.21-5.427,15.165,1.1.21-.115.372-7.6-1.571,1.237-3.5.38.073a5.2,5.2,0,0,0-.043,2.539,1.751,1.751,0,0,0,1.329,1.087l1.559.34,2.445-6.865-1.1-.208a2.317,2.317,0,0,0-1.353.181,2.512,2.512,0,0,0-1.113,1.719l-.382-.072,1.8-5.1.382.073a5.215,5.215,0,0,0-.243.79,1.955,1.955,0,0,0,.1,1.329,1.216,1.216,0,0,0,.885.652l1.141.218,2.858-7.885-1.264-.285a2.363,2.363,0,0,0-2.167.553,9.54,9.54,0,0,0-1.951,2.661l-.382-.073,1.491-4.151Z" transform="translate(-1109.479 -377.996)" fill="#e0a65a"/>
            </g>
          </g>
        </g>
      </g>
      <g id="Group_37-4" data-name="Group 37-4" transform="translate(218.882 136.38)">
        <g id="Group_36-5" data-name="Group 36-5">
          <g id="Group_26-5" data-name="Group 26-5" transform="translate(3.164)">
            <g id="Group_25-5" data-name="Group 25-5">
              <path id="Path_38-5" data-name="Path 38-5" d="M1199.6,322.227a2.861,2.861,0,0,1-.639,0c-.2-.016-.426-.021-.626-.037a4.76,4.76,0,0,0-.564-.019,3.728,3.728,0,0,1-.564-.019c-.208.507-.432,1.006-.638,1.512-.224.5-.451,1-.676,1.5-.2.416-.394.811-.585,1.21s-.393.812-.585,1.208-.416.806-.6,1.2a12.628,12.628,0,0,1-.647,1.186.221.221,0,0,1-.113.079.267.267,0,0,1-.132-.019.228.228,0,0,1-.079-.116.33.33,0,0,1,.025-.151c.234-.451.469-.9.7-1.329s.464-.9.695-1.331c.383-.792.777-1.6,1.14-2.4s.738-1.614,1.089-2.439l.021-.064c-.593,0-1.191.014-1.774.057s-1.169.089-1.76.153l-2.966,2.761a.118.118,0,0,1-.121.029c-.041-.013-.084-.025-.1-.051a.094.094,0,0,1-.036-.1c-.008-.049.025-.084.059-.121l1.97-1.843a2.208,2.208,0,0,1,.321-.288c.1-.1.223-.2.316-.288l-.162.017q-1.14.153-2.243.389c-.725.156-1.475.334-2.2.537a.171.171,0,0,1-.11-.011c-.016-.027-.056-.04-.044-.083a.185.185,0,0,1,.01-.11c.014-.041.041-.056.092-.064.424-.121.828-.242,1.251-.362s.838-.192,1.258-.289.846-.165,1.259-.242.847-.143,1.291-.188l2.461-2.305c.289-.273.555-.533.839-.782s.549-.513.84-.785c.251-.218.5-.436.769-.626a3.492,3.492,0,0,1,.874-.455.162.162,0,0,1,.186.059.181.181,0,0,1,.029.192c-.177.491-.348.968-.52,1.434s-.362.935-.563,1.42l-.323.811c-.106.261-.211.528-.323.809.178.013.383.01.564.018.2.017.385.008.563.019s.379.029.558.04a2.4,2.4,0,0,1,.56.106.08.08,0,0,1,.056.04c.011.027.008.049.021.076l-.021.062a.062.062,0,0,0-.089-.013Zm-4.532-.31c.3-.018.625-.029.924-.049s.623-.011.946-.024c.569-1.372,1.125-2.769,1.636-4.183a3.291,3.291,0,0,0-.725.5c-.224.2-.439.386-.665.59-.6.539-1.191,1.106-1.768,1.633-.58.547-1.165,1.089-1.769,1.633.235-.018.474-.056.709-.073.229,0,.463-.016.717-.027Z" transform="translate(-1187.957 -317.138)" fill="#e0a65a"/>
              <path id="Path_39-5" data-name="Path 39-5" d="M1194.3,326.268a.158.158,0,0,1,.057.107.264.264,0,0,1-.017.132.145.145,0,0,1-.172.1h-.021a.243.243,0,0,1-.148-.114.392.392,0,0,1-.038-.17.711.711,0,0,1,.019-.2.61.61,0,0,0,.036-.194c.067-.275.145-.526.231-.793.149-.409.324-.811.485-1.192.194-.4.382-.771.595-1.161l-.216.183a.122.122,0,0,1-.1.084l-.088.064a2.935,2.935,0,0,0-.334.259,3.385,3.385,0,0,1-.347.232,3.344,3.344,0,0,1-.35.164.327.327,0,0,1-.363-.068.277.277,0,0,1-.143-.205.419.419,0,0,1,0-.226,1.281,1.281,0,0,1,.121-.235c.068-.072.121-.146.183-.218a1.488,1.488,0,0,1,.216-.183c.062-.049.145-.091.178-.121a.836.836,0,0,1,.631-.051.464.464,0,0,1,.264.173l.184-.148a2.409,2.409,0,0,0,.191-.17c.086-.064.161-.154.256-.242.073-.092.161-.153.235-.242l.456-.792c.051-.1.135-.208.186-.305s.135-.21.186-.307a.683.683,0,0,1,.17-.175.52.52,0,0,1,.242-.107.1.1,0,0,1,.1.033.175.175,0,0,1,.01.121,5.593,5.593,0,0,1-.455.725c-.171.242-.332.467-.521.706-.18.353-.362.725-.547,1.087s-.362.727-.525,1.089c-.086.2-.2.415-.284.615a6.1,6.1,0,0,0-.242.631l-.1.312-.1.311-.081.339Zm.017-3.1c.151-.113.323-.219.483-.351a.426.426,0,0,0-.312-.1.6.6,0,0,0-.308.108,1.329,1.329,0,0,0-.253.218.185.185,0,0,0-.067.07.464.464,0,0,0-.089.132.285.285,0,0,0-.059.121c0,.021,0,.067.022.076l.021,0a.149.149,0,0,0,.143-.024.525.525,0,0,1,.14-.068Z" transform="translate(-1184.763 -315.363)" fill="#e0a65a"/>
              <path id="Path_40-5" data-name="Path 40-5" d="M1198.142,323.34a.083.083,0,0,1,.111.033.076.076,0,0,1,.01.027h0a.1.1,0,0,1-.017.132,1.465,1.465,0,0,1-.483.3c-.186.079-.364.137-.541.2a2,2,0,0,1-.337.052.636.636,0,0,1-.351-.043.4.4,0,0,1-.224-.162.515.515,0,0,1-.107-.242,1.044,1.044,0,0,1,.029-.242c.027-.083.067-.138.094-.221.046-.078.086-.134.125-.189a.455.455,0,0,0,.094-.151,1.676,1.676,0,0,0,.115-.148l-.655.34a2.053,2.053,0,0,0-.253.151,2.211,2.211,0,0,1-.272.14,1.682,1.682,0,0,1-.294.068.325.325,0,0,1-.271-.086.283.283,0,0,1-.121-.337.664.664,0,0,1,.208-.3,2.045,2.045,0,0,1,.251-.218c.149-.113.321-.218.483-.324a1.043,1.043,0,0,1,.555-.169,1.361,1.361,0,0,1,.289.024.615.615,0,0,1,.175.1.449.449,0,0,1,.134.156l.328-.172a.15.15,0,0,1,.1-.014c.021.006.054.04.076.046.014.029.03.054.024.075s-.021.064-.048.076a2.505,2.505,0,0,0-.337.351,3.731,3.731,0,0,0-.281.389.738.738,0,0,0-.129.189,1.071,1.071,0,0,0-.121.256.266.266,0,0,0-.021.132c.006.048.016.1.056.11a.239.239,0,0,0,.157.073.891.891,0,0,0,.215-.025c.075-.021.143-.024.219-.046s.129-.051.178-.057c.13-.049.259-.1.418-.165A3.527,3.527,0,0,0,1198.142,323.34Zm-2.056-.668c.11-.056.191-.1.3-.156l.3-.156a1.064,1.064,0,0,0-.224-.094.481.481,0,0,0-.259.032,1.532,1.532,0,0,0-.261.1l-.242.127a1.1,1.1,0,0,0-.213.162c-.06.049-.127.121-.189.167-.006.022-.027.014-.035.037-.025.013-.033.033-.059.049s-.038.035-.062.049l-.014.041c0,.021.016.027.064.019s.076-.022.121-.029.079-.043.13-.051l.083-.043Z" transform="translate(-1183.935 -314.298)" fill="#e0a65a"/>
              <path id="Path_41-5" data-name="Path 41-5" d="M1200.718,324.2a.1.1,0,0,1,.121.06.108.108,0,0,1,0,.138.765.765,0,0,1-.251.216,1.586,1.586,0,0,1-.343.143,1.028,1.028,0,0,1-.348.029.493.493,0,0,1-.278-.134.815.815,0,0,1-.192-.335,1.081,1.081,0,0,1-.014-.391,1.544,1.544,0,0,0-.242.176c-.089.064-.151.113-.242.177a1.163,1.163,0,0,1-.173.106c-.052.029-.13.051-.184.08-.07,0-.121.008-.185.009a.346.346,0,0,1-.168-.121.287.287,0,0,1-.078-.184v-.208a.655.655,0,0,1,.044-.213l.057-.188c.041-.121.094-.223.132-.345a1.712,1.712,0,0,0,.1-.332,3.033,3.033,0,0,0-.458.219c-.143.094-.284.186-.436.3s-.27.211-.418.324a3.145,3.145,0,0,1-.418.3c-.027.013-.053.029-.075.022a.112.112,0,0,1-.076-.046c-.014-.029-.035-.035-.051-.062s-.006-.049,0-.091l.213-.456.1-.242.04-.121a.106.106,0,0,1,.1-.1.086.086,0,0,1,.108.081v.021a.342.342,0,0,1-.022.221.631.631,0,0,1-.086.2l-.014.04-.011.043c.121-.1.266-.191.386-.289a4.312,4.312,0,0,1,.386-.289,2.417,2.417,0,0,1,.394-.242,2.569,2.569,0,0,1,.445-.178.136.136,0,0,1,.121.038.209.209,0,0,1,.051.129,1.144,1.144,0,0,1-.1.471l-.03.1a.294.294,0,0,1-.062.121c-.017.062-.059.121-.078.18l-.06.186-.052.167c-.017.062-.01.111-.029.172,0,.071.014.1.041.083.049-.008.075-.021.121-.03a.971.971,0,0,0,.172-.107.8.8,0,0,1,.151-.111l.623-.466c.027-.014.06-.049.1-.037a.1.1,0,0,1,.1.033c.045.011.056.04.065.086a.164.164,0,0,1,.006.122,2.9,2.9,0,0,0-.081.407.492.492,0,0,0,.106.375.165.165,0,0,0,.188.059,1.263,1.263,0,0,0,.226-.065c.083-.043.156-.064.242-.108A.948.948,0,0,1,1200.718,324.2Z" transform="translate(-1182.897 -313.955)" fill="#e0a65a"/>
              <path id="Path_42-5" data-name="Path 42-5" d="M1201.3,324.4a.1.1,0,0,1,.111.083.08.08,0,0,1-.022.113l-.016.008a1.146,1.146,0,0,1-.412.215,2.4,2.4,0,0,0-.437.159c-.149.043-.28.094-.409.143,0,.068.024.143.024.213a.6.6,0,0,1-.137.362,1.1,1.1,0,0,1-.307.242,1.167,1.167,0,0,1-.369.157,1.112,1.112,0,0,1-.391.081,1.828,1.828,0,0,1-.186.01.449.449,0,0,1-.172-.03.387.387,0,0,1-.244-.242.355.355,0,0,1,0-.207.624.624,0,0,1,.1-.175.47.47,0,0,1,.158-.132c.06-.049.113-.078.176-.127a1.846,1.846,0,0,1,.363-.205l.386-.151.157-.065c-.064-.157-.121-.315-.173-.466a.815.815,0,0,1,.2-.781,1.441,1.441,0,0,1,.253-.218,1.522,1.522,0,0,1,.323-.149,1.244,1.244,0,0,1,.323-.081.093.093,0,0,1,.1.033l.046.081a.147.147,0,0,1,0,.091.072.072,0,0,1-.083.043,1.079,1.079,0,0,0-.412.143.921.921,0,0,0-.318.288.451.451,0,0,0-.092.364,1.694,1.694,0,0,0,.123.356l.072.137.408-.146a4.225,4.225,0,0,0,.439-.157A4.036,4.036,0,0,0,1201.3,324.4Zm-1.822,1.229a.727.727,0,0,0,.207-.162.418.418,0,0,0,.075-.227l-.121.029c-.108.057-.232.087-.34.145s-.212.092-.321.151c-.086.062-.183.149-.28.229h0c.043.016.072,0,.111.014a1.51,1.51,0,0,0,.337-.054,1.113,1.113,0,0,0,.334-.122Z" transform="translate(-1181.849 -313.592)" fill="#e0a65a"/>
              <path id="Path_43-5" data-name="Path 43-5" d="M1200.97,322.562c-.1.014-.121-.04-.022-.076a.839.839,0,0,0,.191-.1c-.041-.011-.048-.06-.008-.121.086-.13.3-.086.242.011A.771.771,0,0,1,1200.97,322.562Z" transform="translate(-1180.334 -314.162)" fill="#e0a65a"/>
              <path id="Path_44-5" data-name="Path 44-5" d="M1203.639,325.163a.1.1,0,0,1,.111.081.079.079,0,0,1-.026.113l-.013.008a1.2,1.2,0,0,1-.412.213,2.458,2.458,0,0,0-.436.159c-.151.043-.28.094-.41.145,0,.07.024.143.024.211a.784.784,0,0,1-.137.364,1.076,1.076,0,0,1-.305.242,1.206,1.206,0,0,1-.363.157,1.1,1.1,0,0,1-.391.081c-.049.01-.121.011-.165.019a.453.453,0,0,1-.172-.033.374.374,0,0,1-.243-.235.351.351,0,0,1,0-.207.664.664,0,0,1,.1-.175.491.491,0,0,1,.157-.134c.06-.049.121-.076.176-.121a1.913,1.913,0,0,1,.363-.207l.39-.149.154-.065c-.062-.157-.121-.315-.172-.466a.807.807,0,0,1,.2-.781,1.172,1.172,0,0,1,.251-.218,2.663,2.663,0,0,1,.321-.15,1.192,1.192,0,0,1,.323-.081c.026-.014.065,0,.1.033l.044.081a.124.124,0,0,1,0,.089.069.069,0,0,1-.08.043,1.055,1.055,0,0,0-.413.145.9.9,0,0,0-.317.286.436.436,0,0,0-.091.364,1.62,1.62,0,0,0,.113.355l.073.137.41-.145a3.882,3.882,0,0,0,.436-.159A2.163,2.163,0,0,0,1203.639,325.163Zm-1.8,1.234a.77.77,0,0,0,.21-.162.449.449,0,0,0,.072-.227l-.121.029a2.71,2.71,0,0,0-.343.143c-.108.057-.21.092-.321.151a3.17,3.17,0,0,0-.278.23h0c.043.014.07,0,.11.011a1.344,1.344,0,0,0,.337-.052,1.473,1.473,0,0,0,.334-.121Z" transform="translate(-1180.45 -313.133)" fill="#e0a65a"/>
            </g>
          </g>
          <g id="Group_31-5" data-name="Group 31-5" transform="translate(9.273 12.198)">
            <g id="Group_30-5" data-name="Group 30-5">
              <path id="Path_67-5" data-name="Path 67-5" d="M1193.412,324.811l2.04.688-.078.181-.518-.164-1.472,5.764,3.353-4.353a1.356,1.356,0,0,0,.207-.364c.067-.207-.035-.329-.253-.421l-.291-.094.1-.173,1.631.537-.079.18-.167-.051c-.31-.1-.6.037-.908.42l-4.93,6.454-.248-.079,2.019-8.147-.5-.156Z" transform="translate(-1191.8 -324.811)" fill="#e0a65a"/>
            </g>
          </g>
          <g id="Group_33-5" data-name="Group 33-5" transform="translate(15.233 14.921)">
            <g id="Group_32-5" data-name="Group 32-5">
              <path id="Path_68-5" data-name="Path 68-5" d="M1195.549,334.161l.079-.178.537.17,3.614-7.279-.536-.17.076-.18,3.718,1.237-.825,1.68-.186-.059a2.681,2.681,0,0,0,.173-1.269.889.889,0,0,0-.606-.625l-.76-.264-1.633,3.3.537.17a1.2,1.2,0,0,0,.69-.011,1.275,1.275,0,0,0,.66-.8l.184.057-1.2,2.448-.186-.057a2.613,2.613,0,0,0,.165-.382.984.984,0,0,0,.03-.674.622.622,0,0,0-.4-.378l-.561-.176-1.9,3.782.615.216a1.191,1.191,0,0,0,1.122-.148,4.813,4.813,0,0,0,1.135-1.218l.186.06-.992,1.992Z" transform="translate(-1195.549 -326.524)" fill="#e0a65a"/>
            </g>
          </g>
          <g id="Group_35-5" data-name="Group 35-5" transform="translate(0 9.832)">
            <g id="Group_34-5" data-name="Group 34-5">
              <path id="Path_69-5" data-name="Path 69-5" d="M1193.458,324.568l-.081.176-.539-.167-3.618,7.278.544.17-.081.18-3.715-1.238.823-1.677.186.059a2.654,2.654,0,0,0-.17,1.269.89.89,0,0,0,.6.623l.761.262,1.631-3.3-.54-.17a1.168,1.168,0,0,0-.688.013,1.265,1.265,0,0,0-.658.795l-.191-.059,1.21-2.448.186.059a2.636,2.636,0,0,0-.17.38.992.992,0,0,0-.027.677.62.62,0,0,0,.405.378l.563.176,1.893-3.782-.615-.216a1.185,1.185,0,0,0-1.119.148,4.819,4.819,0,0,0-1.133,1.215l-.188-.059.992-1.99Z" transform="translate(-1185.967 -323.323)" fill="#e0a65a"/>
            </g>
          </g>
        </g>
      </g>
      <path id="Path_296" data-name="Path 296" d="M1151.3,276.847l9.182-.725-2.272,4.683Z" transform="translate(-987.533 -204.947)" fill="#d7d7d7"/>
      <path id="Path_297" data-name="Path 297" d="M1191.7,291.663l-5.145-4.353-.588,3.718Z" transform="translate(-967.085 -198.349)" fill="#d7d7d7"/>
      <path id="Path_298" data-name="Path 298" d="M1111.117,355.2c5.466,1.434,10.857,3,16.246,4.536,5.391,1.51,10.774,3.051,16.176,4.253l2.026.447,2.022.362c.677.146,1.343.21,2.011.3l1.006.121c.337.051.652.03.978.051.655.021,1.25.062,2.068.049a16.058,16.058,0,0,1,2.275.2,18.7,18.7,0,0,1,4.3,1.237,29.178,29.178,0,0,1,7.387,4.547,35.746,35.746,0,0,1,5.86,6.175,54.852,54.852,0,0,0-6.7-5.028,32.889,32.889,0,0,0-7.327-3.572,19.243,19.243,0,0,0-3.855-.828,16.236,16.236,0,0,0-1.927-.072c-.58.037-1.394.033-2.143.037a43.787,43.787,0,0,1-8.605-1.208,127.324,127.324,0,0,1-16.247-4.939A146.485,146.485,0,0,1,1111.117,355.2Z" transform="translate(-1011.228 -158.312)" fill="#0c1e21"/>
      <path id="Path_299" data-name="Path 299" d="M1104.991,387.565a36.664,36.664,0,0,1,5.251,4.938c.816.884,1.56,1.828,2.321,2.761.734.952,1.44,1.924,2.13,2.909a53.06,53.06,0,0,1,3.678,6.2,39.911,39.911,0,0,1,2.722,6.671c-1.363-1.992-2.586-4.019-3.9-6-1.278-1.992-2.609-3.944-3.936-5.895s-2.7-3.869-4.073-5.8Z" transform="translate(-1014.841 -139.224)" fill="#0c1e21"/>
      <path id="Path_300" data-name="Path 300" d="M1141.823,412.738a18,18,0,0,1,2.992-1.863c.521-.277,1.06-.509,1.6-.754s1.087-.44,1.644-.642a25.552,25.552,0,0,1,3.393-.968,19.766,19.766,0,0,1,3.5-.451c-1.113.394-2.224.725-3.324,1.087s-2.192.741-3.281,1.124-2.17.79-3.256,1.2Z" transform="translate(-993.119 -127.138)" fill="#0c1e21"/>
      <path id="Path_301" data-name="Path 301" d="M1105.69,394.239a19.144,19.144,0,0,1,2.738,2.574c.427.463.815.955,1.208,1.44s.75,1,1.111,1.517a27.521,27.521,0,0,1,1.916,3.235,20.975,20.975,0,0,1,1.421,3.48c-.711-1.038-1.351-2.1-2.032-3.127s-1.362-2.056-2.057-3.075-1.408-2.021-2.121-3.024Z" transform="translate(-1014.429 -135.288)" fill="#0c1e21"/>
      <path id="Path_302" data-name="Path 302" d="M1216.6,347.992c-27.56,23.345-29.348,65.456-12.433,94.881C1196.608,410.908,1200.1,374,1216.6,347.992Z" transform="translate(-962.777 -162.562)"/>
      <path id="Path_303" data-name="Path 303" d="M1178.312,291.537l-22.248,67.429.6,3.369,22.708-70.4Z" transform="translate(-984.721 -195.856)" fill="#bfbebe"/>
      <circle id="Ellipse_20" data-name="Ellipse 20" cx="2.683" cy="2.683" r="2.683" transform="translate(178.609 115.584)" fill="#070808"/>
      <circle id="Ellipse_21" data-name="Ellipse 21" cx="2.683" cy="2.683" r="2.683" transform="translate(171.535 136.649)" fill="#070808"/>
      <path id="Path_304" data-name="Path 304" d="M1270.828,364.34c-3.466,11.859-9.6,21.6-16.839,30.453a49.981,49.981,0,0,0,18.792-29.394Z" transform="translate(-926.97 -152.921)" fill="#d7d7d7"/>
      <path id="Path_305" data-name="Path 305" d="M1240.25,413.169c16.452-4.078,31.011-11.06,40.628-25.6-5.562,13.7-15.742,23-28.706,29.649C1247.285,416.214,1243.061,414.963,1240.25,413.169Z" transform="translate(-935.072 -139.224)" fill="#d7d7d7"/>
      <path id="Path_306" data-name="Path 306" d="M1172.92,362.206l16.312,14.9L1176.64,413.13l-15.961-5.569Z" transform="translate(-981.999 -154.179)" fill="#fff"/>
      <path id="Path_307" data-name="Path 307" d="M1313.279,430.979l8.605-42.238,15.476,15.537-6.765,30.677Z" transform="translate(-892.003 -138.53)" fill="#fff"/>
      <path id="Path_308" data-name="Path 308" d="M1324.2,394.135l-4.51-2.451L1306.9,424.261l11.044.576Z" transform="translate(-895.767 -136.795)" fill="#d7d7d7"/>
      <path id="Path_309" data-name="Path 309" d="M1172.086,367.876l-4.876-2.281-8.624,34.091,4.691.836Z" transform="translate(-983.233 -152.181)" fill="#d7d7d7"/>
      <path id="Path_310" data-name="Path 310" d="M1328.99,402.113l16.174,6.585,52.309-1.019s6.944,7.717-3.087,9.453-40.313,3.855-48.414,3.855-20.637-2.3-20.637-2.3Z" transform="translate(-884.893 -130.644)" fill="#d7b99d"/>
      <path id="Path_311" data-name="Path 311" d="M1409.028,416.632a34.835,34.835,0,0,1-.35,4.931h-68.165a34.8,34.8,0,0,1-.352-4.931,34.433,34.433,0,0,1,34.431-34.435h0A34.436,34.436,0,0,1,1409.028,416.632Z" transform="translate(-876.149 -142.39)" fill="#dfdfdf"/>
      <rect id="Rectangle_49" data-name="Rectangle 49" width="73.631" height="4.931" transform="translate(461.627 274.242)" fill="#c8c8c8"/>
      <path id="Path_312" data-name="Path 312" d="M1365.5,381.949a3.133,3.133,0,1,0-5.361-2.2v0a3.132,3.132,0,0,0,.909,2.2,3.924,3.924,0,0,0,2.222,7.157h0a3.924,3.924,0,0,0,3.925-3.925h0A3.917,3.917,0,0,0,1365.5,381.949Z" transform="translate(-864.832 -145.682)" fill="none" stroke="#dfdfdf" stroke-linejoin="bevel" stroke-width="2"/>
      <path id="Path_313" data-name="Path 313" d="M1178.531,377.833l14.034,11.532L1242.8,393.3s3.711,7.376-6.319,9.117-38.075-1.739-46.177-1.739-17.365-6.764-17.365-6.764Z" transform="translate(-974.771 -144.963)" fill="#d7b99d"/>
      <g id="Group_71" data-name="Group 71" transform="translate(213.206 187.443)">
        <path id="Path_314" data-name="Path 314" d="M1246.334,387.236l-12.464-.493-14.712-.579-9.014-.355h-.006l-14.7-.577h0l-13.042-.515v5.063l63.439,2.494Z" transform="translate(-1182.397 -328.345)" fill="#0e2c32"/>
        <path id="Path_315" data-name="Path 315" d="M1208.964,367.146c.024-.569-1.4-17.32-1.4-17.32l-14.454-.568s-2.736,16.587-2.757,17.157a9.3,9.3,0,0,0,6.046,9.079,3.316,3.316,0,0,1,2.214,3.216l-.941,23.967-6.924,3.47,14.709.577-6.63-4,.94-23.969a3.315,3.315,0,0,1,2.462-3.032A9.3,9.3,0,0,0,1208.964,367.146Z" transform="translate(-1177.708 -349.258)" fill="#dfdfdf" opacity="0.22" style="isolation: isolate"/>
        <path id="Path_316" data-name="Path 316" d="M1223.889,367.733c.024-.568-1.4-17.32-1.4-17.32l-14.455-.568s-2.731,16.589-2.755,17.156a9.3,9.3,0,0,0,6.046,9.081,3.31,3.31,0,0,1,2.214,3.214l-.941,23.969-6.925,3.467,14.711.579-6.629-4,.941-23.967a3.317,3.317,0,0,1,2.461-3.033A9.3,9.3,0,0,0,1223.889,367.733Z" transform="translate(-1168.907 -348.912)" fill="#dfdfdf" opacity="0.22" style="isolation: isolate"/>
        <path id="Path_317" data-name="Path 317" d="M1205.48,357.3c-1.428.526-10.411.785-12.317-2.814-.483,2.99-1.394,8.473-1.415,8.907a7.132,7.132,0,0,0,14.254.561C1206.016,363.517,1205.48,357.3,1205.48,357.3Z" transform="translate(-1176.885 -346.177)" fill="#ffdc90"/>
        <path id="Path_318" data-name="Path 318" d="M1221.065,359.038c-7.124,3.046-13.325-3.612-13.325-3.612s-1.308,7.907-1.331,8.367a7.538,7.538,0,0,0,7.232,7.828h0a7.539,7.539,0,0,0,7.828-7.237C1221.493,363.926,1221.065,359.038,1221.065,359.038Z" transform="translate(-1168.239 -345.62)" fill="#ffdc90"/>
      </g>
      <path id="Path_319" data-name="Path 319" d="M1208.409,351.012c-.931,2.178-1.692,4.262-.967,5.516l.967.464A14.914,14.914,0,0,1,1208.409,351.012Z" transform="translate(-954.591 -160.781)" fill="#fff"/>
      <path id="Path_320" data-name="Path 320" d="M1198.963,350.467a13.658,13.658,0,0,1,.676,7.885h1.254a24.111,24.111,0,0,0,0-6.438Z" transform="translate(-959.421 -161.102)" fill="#fff"/>
      <path id="Path_321" data-name="Path 321" d="M1151.524,274.072c1.865,34.928,4.844,66.719,10.327,91.482,12.991-13.707,32.744-41.353,53.239-70.544-17.883,33.622-36.07,63.448-55.52,77.628C1152.057,344.922,1150.183,311.2,1151.524,274.072Z" transform="translate(-987.634 -206.156)" opacity="0.59" style="isolation: isolate"/>
      <path id="Path_322" data-name="Path 322" d="M1103.76,332.993c10.389-7.453,23.819-8.661,38.87-6.529-18.238,1.777-32.448,5.137-39.973,11.116Z" transform="translate(-1016.218 -175.813)"/>
      <path id="Path_323" data-name="Path 323" d="M1122.687,323.644q16.936-12.774,41.885-5.113C1144.421,318.239,1129.621,319.67,1122.687,323.644Z" transform="translate(-1004.405 -181.63)" fill="#212120"/>
      <path id="Path_324" data-name="Path 324" d="M1133.018,322.081c2.445-2.629,6.793-3.326,14.268-.822C1140.037,320.539,1134.837,320.638,1133.018,322.081Z" transform="translate(-998.312 -179.245)"/>
      <path id="Path_325" data-name="Path 325" d="M1173.421,431.049c5.532-9.19,22.91-12.783,46.813-13.294C1193.657,422.428,1178.623,426.848,1173.421,431.049Z" transform="translate(-974.484 -121.419)"/>
      <path id="Path_326" data-name="Path 326" d="M1142.51,451.465l4.973-34.049.687.21L1144.1,449Z" transform="translate(-992.714 -121.619)" fill="#bfbebe"/>
      <path id="Path_327" data-name="Path 327" d="M1212.872,256.583c5.184,27.824-11.116,46.883-26.818,43-17.6-4.353-36.731-34.135-9.645-56.148C1188.141,244.064,1202.205,248.356,1212.872,256.583Z" transform="translate(-980.691 -224.227)" fill="#d7b99d"/>
      <path id="Path_328" data-name="Path 328" d="M1115.584,334.268c-19.786,1.4-36.175,9.467-50.15,22.279,14.41-9.855,32.736-16.661,56.281-19.414Z" transform="translate(-1038.17 -170.656)" fill="#d7d7d7"/>
      <path id="Path_329" data-name="Path 329" d="M1076.368,289.6c8.826,6.952,14.208,17.562,17.341,30.566-2.089-12.445-6.567-23.377-14.51-32.127Z" transform="translate(-1031.721 -197.922)" fill="#d7d7d7"/>
      <path id="Path_330" data-name="Path 330" d="M1171.145,238.885l-6.262,12.351a30.18,30.18,0,0,0,4.485,33.836l.132.143.846-10.012a25.519,25.519,0,0,1,7.575-16.082l20.676-20.238Z" transform="translate(-981.444 -226.909)" fill="#070808"/>
      <path id="Path_331" data-name="Path 331" d="M1187.169,250.552s-17.176,6.4-6.273,15.367,26.86,12.152,36.966,1.157-8.415-42.168-26.642-34.536-23.608,10.786-23.608,10.786" transform="translate(-977.91 -231.351)" fill="#070808"/>
    </g>
  </g>
</svg>
