<svg xmlns="http://www.w3.org/2000/svg" width="109.342" height="100" viewBox="0 0 109.342 100">
  <g id="Logo" transform="translate(-77.881 -43.675)">
    <g id="Group_36" data-name="Group 36" transform="translate(77.881 43.675)">
      <g id="Group_26" data-name="Group 26" transform="translate(0 0)">
        <g id="Group_25" data-name="Group 25">
          <path id="Path_38" data-name="Path 38" d="M292.309,84.13a22.475,22.475,0,0,1-2.655,1.25q-1.346.532-2.714,1.062-1.214.477-2.387.969t-2.383,1.008q.113,3.815.143,7.538t-.013,7.512q-.042,3.119-.128,6.2t-.21,6.172q-.123,3.089-.286,6.181t-.482,6.2a.763.763,0,0,1-.356.567.892.892,0,0,1-.634.162.843.843,0,0,1-.59-.375.967.967,0,0,1-.144-.656q.16-3.486.387-6.938t.349-6.936q.252-6.139.309-12.256t-.046-12.26l-.031-.311Q276.7,90.9,273.1,92.779t-7.128,4.008l-7.229,17.17a.679.679,0,0,1-.433.4.78.78,0,0,1-.518-.046.848.848,0,0,1-.393-.376.612.612,0,0,1,.02-.593l4.764-11.481q.378-.943.761-1.85t.8-1.854l-.668.421q-4.45,2.813-8.659,5.858t-8.207,6.443a.49.49,0,0,1-.441.122.616.616,0,0,1-.358-.239.733.733,0,0,1-.144-.44.531.531,0,0,1,.212-.436q2.289-1.966,4.587-3.812t4.726-3.589q2.427-1.78,4.882-3.427T264.7,95.85l5.94-14.317q1.012-2.468,2.014-4.876t2.057-4.838a40.024,40.024,0,0,1,2.077-4.054,15.841,15.841,0,0,1,2.84-3.538.674.674,0,0,1,.859-.086.912.912,0,0,1,.5.7q.27,3.522.488,6.99t.364,7q.12,2,.181,3.965t.14,3.97q1.211-.517,2.441-1.033t2.444-.995q1.212-.477,2.434-.9a15.271,15.271,0,0,1,2.5-.625.439.439,0,0,1,.3.088.523.523,0,0,1,.2.255.517.517,0,0,1,.013.314A.432.432,0,0,1,292.309,84.13Zm-19.625,7.213q1.914-.981,3.828-1.942t3.917-1.831q-.313-10.3-1.045-20.637a17.523,17.523,0,0,0-2.138,3.448q-.877,1.863-1.678,3.717-2.2,5.152-4.338,10.215t-4.3,10.211q1.416-.814,2.855-1.608T272.684,91.343Z" transform="translate(-245.27 -64.024)" fill="#e0a65a"/>
          <path id="Path_39" data-name="Path 39" d="M289.354,110.148a.8.8,0,0,1,.45.369,1.316,1.316,0,0,1,.194.553.643.643,0,0,1-.634.734,1.26,1.26,0,0,1-.852-.231,1.918,1.918,0,0,1-.5-.639,3.178,3.178,0,0,1-.282-.84q-.083-.445-.166-.871a25.761,25.761,0,0,1-.494-3.736q-.219-2.976-.163-5.957t.27-5.962l-.551,1.2a.558.558,0,0,1-.264.5l-.231.457q-.464.873-.954,1.694t-1.04,1.621a7.563,7.563,0,0,1-1.147,1.337,1.848,1.848,0,0,1-1.671.443,1.631,1.631,0,0,1-1.02-.547,1.859,1.859,0,0,1-.4-1,3.941,3.941,0,0,1,.091-1.252,8.912,8.912,0,0,1,.4-1.3,8.745,8.745,0,0,1,.554-1.159q.3-.524.544-.864A3.443,3.443,0,0,1,284,93.3a2.677,2.677,0,0,1,1.483.246q.265-.5.492-1t.449-1.031c.214-.469.418-.949.605-1.441s.36-.982.522-1.472l.406-4.22c.077-.533.147-1.081.209-1.637s.132-1.118.206-1.677a6.667,6.667,0,0,1,.383-1.1,1.961,1.961,0,0,1,.762-.866.437.437,0,0,1,.531-.013.56.56,0,0,1,.226.492,28.15,28.15,0,0,1-.513,3.935q-.395,1.952-.832,3.888-.157,2.776-.292,5.55t-.169,5.576q-.04,1.583,0,3.137t.116,3.123c.05.494.1.987.148,1.482s.111.989.188,1.481l.278,1.59Zm-5.77-13.1q.678-1.094,1.374-2.426a2.159,2.159,0,0,0-1.442.184,2.483,2.483,0,0,0-1.059,1.033,8.713,8.713,0,0,0-.63,1.385,2.8,2.8,0,0,0-.172.47,6.293,6.293,0,0,0-.165.709,2.4,2.4,0,0,0-.035.633.243.243,0,0,0,.3.246.827.827,0,0,0,.594-.376c.16-.225.3-.423.413-.593Z" transform="translate(-240.216 -61.633)" fill="#e0a65a"/>
          <path id="Path_40" data-name="Path 40" d="M304.083,92.06a.428.428,0,0,1,.632.014.489.489,0,0,1,.14.618,6.516,6.516,0,0,1-1.438,2.174,24.651,24.651,0,0,1-1.948,1.793,14.909,14.909,0,0,1-1.31.9,3.492,3.492,0,0,1-1.505.526,2.33,2.33,0,0,1-1.244-.23,1.891,1.891,0,0,1-.85-.8,2.94,2.94,0,0,1-.327-1.09,5.286,5.286,0,0,1,.008-1.106q.063-.558.132-1.038c.052-.268.106-.529.158-.784s.118-.518.2-.79l-2.1,2.7c-.232.313-.486.666-.761,1.062a8.1,8.1,0,0,1-.915,1.1,4.131,4.131,0,0,1-1.1.8,1.97,1.97,0,0,1-1.285.168,1.269,1.269,0,0,1-1.144-1.186,3.289,3.289,0,0,1,.309-1.628c.256-.59.473-1.066.646-1.424a19.421,19.421,0,0,1,1.429-2.274,5.976,5.976,0,0,1,1.99-1.777,3.85,3.85,0,0,1,1.262-.4,2.961,2.961,0,0,1,.953.063,2.754,2.754,0,0,1,.9.383L298,88.449a.658.658,0,0,1,.394-.2.63.63,0,0,1,.4.1.657.657,0,0,1,.268.31.582.582,0,0,1-.015.435,13.044,13.044,0,0,0-.74,2.064c-.19.717-.356,1.437-.493,2.16-.031.213-.1.55-.195,1.005a4.2,4.2,0,0,0-.086,1.309,1.967,1.967,0,0,0,.164.634.636.636,0,0,0,.45.369.992.992,0,0,0,.807-.021,4.44,4.44,0,0,0,.858-.481,9.832,9.832,0,0,0,.8-.633c.254-.221.464-.407.634-.557q.716-.7,1.389-1.48A11.693,11.693,0,0,1,304.083,92.06Zm-9.873,1.027q.491-.6.982-1.2t.983-1.2a2.4,2.4,0,0,0-1.135.073,2.664,2.664,0,0,0-1.082.623,9.614,9.614,0,0,0-.853.913c-.256.341-.5.69-.743,1.04a7.031,7.031,0,0,0-.618,1.108,6.149,6.149,0,0,0-.485,1.074.917.917,0,0,0-.1.206c-.042.111-.089.227-.141.351s-.095.232-.126.327-.03.155,0,.179c.061.1.161.1.3.009a3.542,3.542,0,0,0,.438-.361,4.889,4.889,0,0,0,.427-.455l.263-.322Z" transform="translate(-238.858 -60.157)" fill="#e0a65a"/>
          <path id="Path_41" data-name="Path 41" d="M319.721,90.52a.585.585,0,0,1,.631,0,.458.458,0,0,1,.252.547,3.628,3.628,0,0,1-.61,1.381,5.614,5.614,0,0,1-1.14,1.218,4.278,4.278,0,0,1-1.4.751,2.087,2.087,0,0,1-1.4-.015,3,3,0,0,1-1.406-1.044,5.639,5.639,0,0,1-.789-1.576q-.376.59-.691,1.174c-.211.39-.441.779-.691,1.172a6.468,6.468,0,0,1-.494.779,3.111,3.111,0,0,1-.661.677,2.149,2.149,0,0,1-.791.376,1.29,1.29,0,0,1-.922-.164,1.423,1.423,0,0,1-.692-.6,4.123,4.123,0,0,1-.386-.908,4.261,4.261,0,0,1-.177-.988c-.021-.326-.045-.633-.074-.92-.03-.574-.054-1.138-.069-1.688a9.974,9.974,0,0,0-.184-1.637,11.724,11.724,0,0,0-1.473,1.824q-.649.991-1.234,2.056t-1.147,2.126a22.918,22.918,0,0,1-1.216,2.034.435.435,0,0,1-.313.209.77.77,0,0,1-.4-.019.741.741,0,0,1-.317-.205.425.425,0,0,1-.113-.343l0-2.327V93.224l-.059-.584a.531.531,0,0,1,.268-.658.45.45,0,0,1,.664.131,1.806,1.806,0,0,1,.309.935c.023.353.036.685.042,1a1.264,1.264,0,0,1,0,.2,1.208,1.208,0,0,0,0,.2q.534-.962,1.048-1.939t1.069-1.922a15.508,15.508,0,0,1,1.24-1.8,10.375,10.375,0,0,1,1.56-1.577.641.641,0,0,1,.638-.1.708.708,0,0,1,.449.428,8.56,8.56,0,0,1,.5,2.159c.017.182.036.365.054.546a5.033,5.033,0,0,1,.019.59c0,.288.014.589.033.9s.042.615.07.9.07.551.119.8a4.2,4.2,0,0,0,.232.744c.1.253.223.347.359.279a1.138,1.138,0,0,0,.412-.4,3.662,3.662,0,0,0,.472-.756c.128-.276.26-.539.391-.789l1.757-3.175a.756.756,0,0,1,.356-.349.8.8,0,0,1,.464-.066.823.823,0,0,1,.433.212.686.686,0,0,1,.22.451,14.616,14.616,0,0,0,.4,1.832,2.1,2.1,0,0,0,1.184,1.4.883.883,0,0,0,.863-.066,3.934,3.934,0,0,0,.857-.7c.271-.289.532-.584.778-.885A2.715,2.715,0,0,1,319.721,90.52Z" transform="translate(-237.1 -60.346)" fill="#e0a65a"/>
          <path id="Path_42" data-name="Path 42" d="M325.511,89.867a.511.511,0,0,1,.605.137.454.454,0,0,1,.1.622,6.224,6.224,0,0,1-1.314,1.65q-.814.731-1.567,1.476a15.6,15.6,0,0,0-1.44,1.367,6.851,6.851,0,0,1,.475.821,2.753,2.753,0,0,1,.062,1.787,5.424,5.424,0,0,1-.786,1.6,7.534,7.534,0,0,1-1.2,1.381,9.586,9.586,0,0,1-1.467,1.095,6.492,6.492,0,0,1-.715.348,2.89,2.89,0,0,1-.807.2,1.639,1.639,0,0,1-1.433-.526,1.507,1.507,0,0,1-.4-.865,2.366,2.366,0,0,1,.084-.916,4.793,4.793,0,0,1,.366-.885c.154-.292.311-.564.47-.816a8.805,8.805,0,0,1,1.148-1.516q.644-.675,1.325-1.334l.5-.524a22.415,22.415,0,0,1-1.62-1.612,3.169,3.169,0,0,1-.8-2.089,4.313,4.313,0,0,1,.2-1.539,5.033,5.033,0,0,1,.689-1.39,8.035,8.035,0,0,1,1.024-1.186,6.8,6.8,0,0,1,1.208-.929.5.5,0,0,1,.448-.066.786.786,0,0,1,.358.241.518.518,0,0,1,.117.381.457.457,0,0,1-.24.36,5.451,5.451,0,0,0-1.455,1.408,4.943,4.943,0,0,0-.82,1.858,2.158,2.158,0,0,0,.328,1.7,7.689,7.689,0,0,0,1.2,1.3l.52.462,1.48-1.371q.757-.708,1.569-1.46A6.158,6.158,0,0,1,325.511,89.867Zm-5.292,8.576a3.241,3.241,0,0,0,.561-1.082,1.482,1.482,0,0,0-.1-1.054l-.435.4q-.607.612-1.141,1.2a13.778,13.778,0,0,0-1.016,1.265,6.739,6.739,0,0,0-.722,1.452l.039,0a4.473,4.473,0,0,0,.492-.206,5.753,5.753,0,0,0,1.293-.86A7.5,7.5,0,0,0,320.22,98.443Z" transform="translate(-235.004 -60.495)" fill="#e0a65a"/>
          <path id="Path_43" data-name="Path 43" d="M324.813,79.008c-.327.27-.586.059-.262-.251a5.387,5.387,0,0,0,.6-.731c-.237-.014-.37-.16-.281-.444.167-.688,1.092-.9,1.105-.386C325.994,77.823,325.207,78.613,324.813,79.008Z" transform="translate(-233.816 -61.967)" fill="#e0a65a"/>
          <path id="Path_44" data-name="Path 44" d="M341.26,88.287a.509.509,0,0,1,.6.138.45.45,0,0,1,.1.62,6.2,6.2,0,0,1-1.313,1.65c-.544.488-1.064.98-1.568,1.477a15.915,15.915,0,0,0-1.44,1.367,6.947,6.947,0,0,1,.478.82,2.777,2.777,0,0,1,.06,1.787,5.427,5.427,0,0,1-.786,1.6,7.531,7.531,0,0,1-1.2,1.382,9.543,9.543,0,0,1-1.468,1.094,6.582,6.582,0,0,1-.714.349,2.884,2.884,0,0,1-.808.2,1.641,1.641,0,0,1-1.433-.526,1.514,1.514,0,0,1-.4-.866,2.386,2.386,0,0,1,.086-.915,4.836,4.836,0,0,1,.365-.884c.155-.293.311-.565.471-.818a8.813,8.813,0,0,1,1.148-1.516q.642-.675,1.326-1.334l.5-.524a22.838,22.838,0,0,1-1.62-1.611,3.179,3.179,0,0,1-.8-2.09,4.277,4.277,0,0,1,.2-1.539,5.024,5.024,0,0,1,.688-1.389,8.129,8.129,0,0,1,1.024-1.187,6.887,6.887,0,0,1,1.21-.929.5.5,0,0,1,.446-.065.784.784,0,0,1,.36.24.519.519,0,0,1,.117.382.458.458,0,0,1-.24.359,5.486,5.486,0,0,0-1.455,1.408,4.926,4.926,0,0,0-.82,1.858,2.152,2.152,0,0,0,.328,1.7,7.681,7.681,0,0,0,1.194,1.3l.521.462,1.478-1.371q.758-.708,1.57-1.459A6.121,6.121,0,0,1,341.26,88.287Zm-5.291,8.576a3.252,3.252,0,0,0,.561-1.081,1.484,1.484,0,0,0-.1-1.054l-.434.4c-.407.407-.787.808-1.142,1.2a13.973,13.973,0,0,0-1.017,1.265,6.781,6.781,0,0,0-.721,1.453l.038,0a4.421,4.421,0,0,0,.493-.206,5.8,5.8,0,0,0,1.293-.859A7.643,7.643,0,0,0,335.969,96.862Z" transform="translate(-232.706 -60.748)" fill="#e0a65a"/>
        </g>
      </g>
      <g id="Group_31" data-name="Group 31" transform="translate(43.917 55.083)">
        <g id="Group_30" data-name="Group 30" transform="translate(0)">
          <path id="Path_67" data-name="Path 67" d="M272.972,124.914l9.9-.993-.026.931-2.49.249L285,152l5.828-24.562a6.6,6.6,0,0,0,.192-1.965q-.142-1.422-1.861-1.25l-1.422.143.055-.934,7.884-.791-.026.931-.8.08q-2.223.223-2.978,3.442l-8.48,36.323-1.156.116L275.377,125.6l-2.431.244Z" transform="translate(-272.946 -122.636)" fill="#e0a65a"/>
        </g>
      </g>
      <g id="Group_33" data-name="Group 33" transform="translate(81.67 51.583)">
        <g id="Group_32" data-name="Group 32" transform="translate(0)">
          <path id="Path_68" data-name="Path 68" d="M351.345,156.406l.026-.931,2.608-.262,1.468-37.3-2.608.261.026-.93,17.9-1.8-.3,8.622-.919.092q-.4-4-1.663-5.686a3.807,3.807,0,0,0-3.692-1.44l-3.7.371-.644,16.858,2.549-.255a4.962,4.962,0,0,0,2.871-1.366q1.33-1.211,1.264-4.557l.889-.089-.447,12.558-.859.086a11.364,11.364,0,0,0,.014-1.947,4.585,4.585,0,0,0-1.17-2.861,2.824,2.824,0,0,0-2.406-.851l-2.726.273-.8,19.449,3.022-.3a5.6,5.6,0,0,0,4.4-2.716,21.712,21.712,0,0,0,2.449-7.221l.919-.092-.382,10.216Z" transform="translate(-351.345 -115.453)" fill="#e0a65a"/>
        </g>
      </g>
      <g id="Group_35" data-name="Group 35" transform="translate(8.183 59.047)">
        <g id="Group_34" data-name="Group 34" transform="translate(0 0)">
          <path id="Path_69" data-name="Path 69" d="M218.081,130.769l-.026.93-2.608.262-1.467,37.3,2.608-.262-.026.931-17.9,1.8.3-8.622.918-.092q.4,4,1.663,5.686a3.807,3.807,0,0,0,3.692,1.441l3.7-.372.644-16.858-2.549.256a4.959,4.959,0,0,0-2.872,1.366q-1.33,1.21-1.264,4.557l-.889.089.446-12.558.86-.086a11.329,11.329,0,0,0-.014,1.947,4.587,4.587,0,0,0,1.17,2.861,2.826,2.826,0,0,0,2.405.851l2.727-.273.8-19.449-3.023.3a5.594,5.594,0,0,0-4.4,2.716,21.721,21.721,0,0,0-2.449,7.221l-.919.092L200,132.582Z" transform="translate(-198.66 -130.769)" fill="#e0a65a"/>
        </g>
      </g>
    </g>
  </g>
</svg>
